<svg id="Ebene_1" data-name="Ebene 1" xmlns="http://www.w3.org/2000/svg" viewBox="0 0 1000 200"><defs><style>.cls-1{fill:#fff;}.cls-2{fill:#4d96ff;}.cls-3{fill:#005cff;}</style></defs><rect class="cls-1" x="390.8" y="90.7" width="39.47" height="101.23"/><polygon class="cls-1" points="451.21 192.09 569.69 192.09 569.69 166.1 490.68 166.1 490.68 153.15 569.69 153.15 569.69 129.72 490.68 129.72 490.68 116.77 569.69 116.77 569.69 90.85 451.21 90.85 451.21 192.09"/><polygon class="cls-1" points="736.91 192.09 855.39 192.09 855.39 166.1 776.38 166.1 776.38 153.15 855.39 153.15 855.39 129.72 776.38 129.72 776.38 116.77 855.39 116.77 855.39 90.85 736.91 90.85 736.91 192.09"/><polygon class="cls-1" points="915.8 159.85 915.8 90.7 876.33 90.7 876.33 191.94 994.81 191.94 994.81 159.85 915.8 159.85"/><path class="cls-1" d="M372.5,149.76A37,37,0,0,0,378.6,129c.3-20.94-17.4-38.49-38.27-38.26H242.79v29.6h87.6a8.61,8.61,0,0,1,8.66,8.66,8.62,8.62,0,0,1-8.66,8.59H282.26V120.38l-39.47,18.93V192h39.47v-24.7h35.25L336.57,192h42l-22.07-28.39A38,38,0,0,0,372.5,149.76Z"/><path class="cls-1" d="M650.13,153.67h31.79c-5.95,7.69-15.89,8.59-31.48,8.59-16.2-.23-29.91-3.09-29.68-19.73V140c-.23-16.5,13.48-19.51,29.68-19.73a63.46,63.46,0,0,1,15.74,1.8,18.85,18.85,0,0,1,10,6l36-17.28c-11.34-16.88-34.7-22.57-61.75-22.57-38.12.07-69.3,11.07-69.15,49.41V145c-.15,38.26,31,49.26,69.15,49.41,17.17,0,35-4.14,46.77-15.74l2,15.74H718.9V136.35H650.13Z"/><polygon class="cls-2" points="5.19 176.37 61.13 146.06 61.13 5.58 5.19 35.89 5.19 176.37"/><polygon class="cls-3" points="119.65 107.57 175.59 77.25 61.13 5.58 61.13 68.7 119.65 107.57"/><polygon class="cls-2" points="119.65 141.94 175.59 178.32 175.59 77.25 119.65 107.57 119.65 141.94"/><polygon class="cls-3" points="91.84 159.86 36.27 191.94 147.4 191.94 91.84 159.86"/></svg>