<svg id="Ebene_1" data-name="Ebene 1" xmlns="http://www.w3.org/2000/svg" viewBox="0 0 1000 94.79"><defs><style>.cls-1{fill:#32373b;}.cls-2{fill:#4d96ff;}.cls-3{fill:#005cff;}</style></defs><rect class="cls-1" x="174.49" y="43.19" width="17.84" height="45.75"/><polygon class="cls-1" points="201.79 89.02 255.34 89.02 255.34 77.27 219.63 77.27 219.63 71.42 255.34 71.42 255.34 60.83 219.63 60.83 219.63 54.97 255.34 54.97 255.34 43.26 201.79 43.26 201.79 89.02"/><polygon class="cls-1" points="330.92 89.02 384.47 89.02 384.47 77.27 348.76 77.27 348.76 71.42 384.47 71.42 384.47 60.83 348.76 60.83 348.76 54.97 384.47 54.97 384.47 43.26 330.92 43.26 330.92 89.02"/><polygon class="cls-1" points="411.78 74.44 411.78 43.19 393.94 43.19 393.94 88.95 447.49 88.95 447.49 74.44 411.78 74.44"/><path class="cls-1" d="M166.22,69.88A16.65,16.65,0,0,0,169,60.52a17.28,17.28,0,0,0-17.3-17.29H107.59V56.61h39.6a3.88,3.88,0,0,1,3.91,3.91,3.88,3.88,0,0,1-3.91,3.88H125.43V56.61l-17.84,8.55V89h17.84V77.82h15.94L150,89h19L159,76.15A17.21,17.21,0,0,0,166.22,69.88Z"/><path class="cls-1" d="M291.7,71.65h14.37c-2.69,3.48-7.18,3.88-14.23,3.88-7.32-.1-13.52-1.39-13.41-8.91V65.49c-.11-7.45,6.09-8.82,13.41-8.92a28.28,28.28,0,0,1,7.11.82,8.53,8.53,0,0,1,4.51,2.69l16.29-7.81c-5.12-7.63-15.68-10.2-27.91-10.2-17.23,0-31.32,5-31.25,22.33v3.34c-.07,17.29,14,22.26,31.25,22.33,7.76,0,15.83-1.87,21.14-7.11l.89,7.11h8.92V63.82H291.7Z"/><polygon class="cls-2" points="0.2 81.91 25.49 68.21 25.49 4.72 0.2 18.42 0.2 81.91"/><polygon class="cls-3" points="51.94 50.81 77.22 37.11 25.49 4.72 25.49 33.25 51.94 50.81"/><polygon class="cls-2" points="51.94 66.35 77.22 82.79 77.22 37.11 51.94 50.81 51.94 66.35"/><polygon class="cls-3" points="39.37 74.45 14.25 88.95 64.48 88.95 39.37 74.45"/><path class="cls-1" d="M481.19,44.39V88h-17V44.39Z"/><path class="cls-1" d="M488.54,44.39H509.8l17,21.78,17-21.78H565V88h-17V64.71L531,88h-8.49l-17-23.24V88h-17Z"/><path class="cls-1" d="M573.25,44.39h21.26l17,21.78,17-21.78h21.23V88h-17V64.71L615.74,88h-8.49l-17-23.24V88h-17Z"/><path class="cls-1" d="M713.58,64.58v3.17C713.64,84.22,700.22,89,683.86,89S654,84.22,654.1,67.75V64.58c-.06-16.5,13.35-21.23,29.76-21.26S713.58,48.11,713.58,64.58Zm-17,1c.1-7.09-5.8-8.39-12.73-8.49-7,.1-12.87,1.4-12.77,8.49v1.07c-.1,7.13,5.8,8.43,12.77,8.53,6.93-.1,12.83-1.4,12.73-8.53Z"/><path class="cls-1" d="M775.37,76.31c.1,7.62-6.32,11.7-13.81,11.7H716.93V44.45h41.43c7.55,0,13.93,4.08,13.84,11.67a10.7,10.7,0,0,1-5.06,9.37C772.07,67.07,775.37,70.83,775.37,76.31ZM733.92,54.79v5.87h19.67a2.94,2.94,0,0,0,2.66-2.95,2.91,2.91,0,0,0-2.66-2.92Zm22.85,22.85a2.93,2.93,0,0,0,0-5.83H733.92v5.83Z"/><path class="cls-1" d="M795.23,44.39V88h-17V44.39Z"/><path class="cls-1" d="M819.56,44.39V74.14h34V88h-51V44.39Z"/><path class="cls-1" d="M874.61,44.39V88h-17V44.39Z"/><path class="cls-1" d="M882,44.45h51V55.6h-34v5.57h34V71.25h-34v5.58h34V88H882Z"/><path class="cls-1" d="M982.78,44.39h17V88H980.67l-23.4-26.61V88h-17V44.39h23.37l19.12,23.07Z"/></svg>