<?xml version="1.0" encoding="utf-8"?>
<!-- Generator: Adobe Illustrator 26.0.1, SVG Export Plug-In . SVG Version: 6.00 Build 0)  -->
<svg version="1.1" id="Ebene_1" xmlns="http://www.w3.org/2000/svg" xmlns:xlink="http://www.w3.org/1999/xlink" x="0px" y="0px"
	 viewBox="0 0 512 512" style="enable-background:new 0 0 512 512;" xml:space="preserve">
<style type="text/css">
	.st0{fill:#8ABFFF;}
	.st1{fill:#FFFFFF;}
	.st2{fill:#8BC0FF;}
	.st3{fill:#005CFF;}
</style>
<g id="g5HqvX.tif">
	<g>
		<path class="st0" d="M469.59,0.54c0,98.22,0,196.45,0,294.67c-0.85,1.3-0.31,2.73-0.37,4.1c-0.01,3.82-0.08,7.63-0.38,11.44
			c-1.18,14.9-3.63,29.59-7.45,44.04c-7.4,27.96-19.42,53.72-37.06,76.72c-27.07,35.29-62.1,59.01-104.73,71.57
			c-17.43,5.14-35.25,7.97-53.41,8.58c-1.16-0.01-2.32-0.02-3.48-0.02c-4.19-0.13-8.37-0.14-12.56,0.01
			c-1.16,0.01-2.31,0.02-3.47,0.02c-4.47-0.07-8.92-0.46-13.37-0.88c-15.4-1.46-30.47-4.5-45.2-9.21
			c-31.38-10.02-58.83-26.53-82.14-49.85c-16.25-16.26-29.25-34.82-39.33-55.45c-10.54-21.59-17.28-44.33-20.83-68.06
			c-1.12-7.49-1.96-15-2.37-22.56c-0.29-5.32-0.72-10.64-0.68-15.98c0.29-0.77,0.14-1.57,0.14-2.35
			c0.01-94.54,0.01-189.07,0.01-283.61c0-3.66-0.47-3.21,3.22-3.21c140.29-0.01,280.57-0.01,420.86,0
			C467.86,0.52,468.72,0.53,469.59,0.54z M256.65,8.36c-67.51,0-135.02,0-202.53,0c-0.5,0-1.01-0.01-1.51,0
			c-1.65,0.02-1.65,0.03-1.68,1.63c0,0.22,0,0.43,0,0.65c0,92.52,0.01,185.03-0.01,277.55c0,15.46,1.23,30.81,3.97,46.03
			c4.37,24.3,12.24,47.36,24.34,68.91c17.22,30.65,40.82,55.13,71.16,72.98c27.18,16,56.67,24.63,88.01,27.13
			c12.82,1.02,25.64,0.92,38.46-0.24c13.53-1.23,26.84-3.59,39.87-7.42c48.57-14.28,86.3-42.89,112.86-85.97
			c17.14-27.8,26.61-58.28,30.42-90.6c1.33-11.33,1.77-22.7,1.77-34.1c-0.03-91.22-0.01-182.44-0.01-273.65c0-2.9,0-2.9-2.8-2.9
			C391.52,8.36,324.09,8.36,256.65,8.36z"/>
		<path class="st1" d="M42.76,289.69c-0.02,0.21-0.14,0.32-0.35,0.33c0-96.64,0-193.27,0-289.91c141.74,0,283.48,0,425.22,0.03
			c0.63,0,1.47-0.5,1.95,0.41c-0.87-0.01-1.73-0.03-2.6-0.03c-140.29,0-280.57,0-420.86,0c-3.69,0-3.22-0.46-3.22,3.21
			c-0.01,94.54-0.01,189.07-0.01,283.61C42.9,288.12,43.06,288.92,42.76,289.69z"/>
		<path class="st2" d="M250.14,511.65c4.19-0.15,8.37-0.13,12.56-0.01c-0.02,0.12-0.02,0.24,0.01,0.36c-4.18,0-8.37,0-12.55,0
			C250.17,511.88,250.16,511.76,250.14,511.65z"/>
		<path class="st2" d="M469.59,299.11c-0.1,0.11-0.22,0.18-0.37,0.21c0.06-1.37-0.48-2.8,0.37-4.1
			C469.59,296.51,469.59,297.81,469.59,299.11z"/>
		<path class="st1" d="M250.14,511.65c0.02,0.12,0.03,0.23,0.02,0.35c-1.3,0-2.6,0-3.9,0c0.13-0.11,0.27-0.22,0.41-0.33
			C247.83,511.66,248.99,511.66,250.14,511.65z"/>
		<path class="st1" d="M262.71,512c-0.03-0.12-0.03-0.24-0.01-0.36c1.16,0.01,2.32,0.02,3.48,0.02c0.14,0.11,0.28,0.22,0.42,0.34
			C265.31,512,264.01,512,262.71,512z"/>
		<path class="st2" d="M355.75,64.96c0.1,0.86,0.65,1.56,1.04,2.31c8.21,15.86,16.44,31.71,24.66,47.57c0.1,0.19,0.21,0.38,0.3,0.57
			c1.08,2.1,0.79,2.65-1.67,2.9c-0.73,0.08-1.05,0.3-1.02,1.03c0.02,0.5,0,1.01,0,1.51c0,21.56,0,43.12-0.01,64.68
			c0,1.21-0.13,2.39,1.33,2.97c0.41,0.16,0.66,0.74,0.98,1.13c7.65,9.2,15.34,18.38,22.92,27.65c1.17,1.43,2.37,2.23,4.18,1.98
			c1.14-0.16,1.53,0.29,1.47,1.44c-0.08,1.65,0,3.32-0.03,4.97c-0.02,1.47-0.04,1.48-1.6,1.5c-1.37,0.02-2.74,0.02-4.11,0
			c-0.63-0.01-0.93,0.23-0.9,0.88c0.02,0.43,0,0.87,0,1.3c0,10.82,0,21.63,0,32.45c0,0.36,0.03,0.72-0.01,1.08
			c-0.11,0.97,0.37,1.2,1.26,1.23c1.81,0.06,1.81,0.11,1.82,1.9c0,0.29,0,0.58,0,0.87c0.02,1.79-0.38,2,2,2
			c1.5,0,1.48,0.04,1.54,1.54c0.11,2.65-0.28,5.32,0.29,7.96c0.18,0.86-0.11,1.33-1.14,1.26c-2.31-0.17-4.62-0.14-6.88,0.45
			c-6.76,1.78-11.81,5.54-14.11,12.39c-0.51,1.51-0.69,3.09-0.69,4.69c0,30.29,0,60.57,0,90.86c0,1.61,0,1.68,1.64,1.9
			c0.86,0.12,0.83,0.62,0.83,1.2c0,1.8-0.02,3.61,0.01,5.41c0.02,1.51,0.04,1.51,1.6,1.58c0.36,0.01,0.72,0.02,1.08,0
			c0.68-0.04,1.08,0.15,1.08,0.95c-0.02,4.69-0.02,9.37,0,14.06c0,0.89-0.43,1.11-1.21,1.05c-0.5-0.04-1.01-0.01-1.51-0.01
			c-89.8,0-179.6,0-269.39-0.01c-3.26,0-2.8,0.47-2.82-2.89c-0.03-3.82-0.01-7.64,0-11.47c0.01-1.67,0.02-1.67,1.61-1.71
			c0.36-0.01,0.72-0.03,1.08,0c0.88,0.08,1.11-0.38,1.11-1.17c-0.01-1.8,0.04-3.61,0.02-5.41c-0.01-0.94-0.01-1.77,1.32-1.58
			c0.88,0.12,1.13-0.4,1.1-1.17c-0.02-0.58,0-1.15,0-1.73c-0.02-29.78-0.07-59.56-0.04-89.35c0.01-7.78-3.95-12.85-10.56-16.2
			c-3.21-1.63-6.73-2.05-10.3-2c-1.51,0.02-1.54-0.01-1.55-1.5c-0.02-2.52-0.02-5.05,0-7.57c0.01-1.51,0.03-1.51,1.52-1.56
			c0.36-0.01,0.72-0.01,1.08,0c0.66,0.02,0.88-0.35,0.88-0.94c0-0.94,0.04-1.88,0.02-2.81c-0.02-0.7,0.21-1.1,0.99-1.03
			c0.36,0.03,0.72-0.02,1.08,0.01c0.71,0.05,1.09-0.2,1.05-0.97c-0.02-0.43,0-0.87,0-1.3c0-10.74,0-21.49,0-32.23
			c0-0.29-0.03-0.58,0.01-0.86c0.13-1.07-0.21-1.59-1.4-1.52c-1.37,0.08-2.74-0.04-4.11,0c-0.85,0.03-1.15-0.31-1.13-1.14
			c0.03-1.87,0.03-3.75,0-5.62c-0.01-0.78,0.19-1.34,1.07-1.16c2.4,0.48,3.8-0.9,5.3-2.49c8.65-9.19,17.41-18.28,26.07-27.46
			c0.99-1.05,1.99-1.55,3.38-1.38c0.43,0.05,0.86-0.01,1.3,0.01c0.65,0.02,0.91-0.31,0.9-0.92c-0.01-0.5,0-1.01,0-1.51
			c0-21.56,0-43.12,0-64.68c0-0.43-0.02-0.87,0-1.3c0.03-0.8-0.31-1.11-1.13-1.21c-2.03-0.24-2.43-1.12-1.44-3.04
			c6.18-11.97,12.37-23.93,18.55-35.89c2.28-4.41,4.55-8.83,6.83-13.25c0.2-0.38,0.48-0.73,0.39-1.22
			c-0.77-0.48-1.61-0.91-2.34-1.47c-4.49-3.47-4.04-9.59,0.87-12.41c0.48-0.28,1.22-0.35,1.29-1.02c0.1-0.93,0.06-1.87,0.02-2.81
			c-0.01-0.31-0.35-0.43-0.64-0.44c-0.5-0.03-1.01-0.03-1.51-0.04c-2.75-0.03-2.45,0.4-2.48-2.58c0-0.07-0.01-0.14,0-0.22
			c0.09-1.06-0.44-2.37,0.25-3.13c0.72-0.8,2.05-0.3,3.11-0.28c1.07,0.01,1.36-0.41,1.37-1.4c0.01-0.98-0.45-2.25,0.26-2.89
			c0.77-0.7,2.07-0.17,3.13-0.26c0.14-0.01,0.29,0,0.43,0c2.05,0.02,1.86-0.23,1.87,1.83c0.02,2.65,0.02,2.65,2.64,2.69
			c0.43,0.01,0.87,0.01,1.3,0.01c0.53,0,0.79,0.27,0.79,0.79c0.01,1.59,0.01,3.17,0,4.76c-0.01,0.55-0.37,0.71-0.87,0.71
			c-0.94-0.01-1.88,0.02-2.81,0c-0.74-0.01-1,0.35-1.04,1.05c-0.09,1.47-0.05,2.61,1.6,3.53c2.47,1.38,3.77,3.77,3.5,6.71
			c-0.28,2.97-1.86,5.07-4.63,6.26c-0.33,0.14-0.64,0.31-0.96,0.47c0.1,0.96,0.66,1.65,1.05,2.4c8.44,16.15,16.89,32.29,25.35,48.43
			c1.27,2.43,1.1,2.67-1.7,2.75c-1.06,0.03-2.38-0.47-3.13,0.26c-0.83,0.81-0.3,2.19-0.31,3.32c-0.02,21.2-0.02,42.4-0.01,63.6
			c0,2.68-0.32,2.41,2.43,2.41c4.47,0.01,8.94,0.01,13.42,0c1.81,0,1.83-0.02,1.83-1.69c0.01-11.03-0.01-22.07,0.02-33.1
			c0-1.01-0.27-1.78-0.93-2.53c-1.34-1.51-2.61-3.08-3.9-4.64c-1.26-1.54-1.26-1.6,0.4-2.84c8.52-6.42,17.05-12.84,25.57-19.25
			c6.8-5.12,13.6-10.23,20.39-15.35c0.34-0.26,0.65-0.55,1.03-0.88c-0.43-0.37-0.8-0.7-1.17-1.03c-6.2-5.46-4.96-14.72,2.54-18.22
			c1.34-0.63,1.86-1.36,1.78-2.72c-0.04-0.72,0-1.44-0.01-2.16c-0.02-2.3-0.02-2.31-2.4-2.36c-1.3-0.03-2.6-0.05-3.89-0.02
			c-0.76,0.02-1-0.29-0.99-1.02c0.03-2.16,0.03-4.33,0-6.49c-0.01-0.78,0.34-0.98,1.04-0.96c1.59,0.03,3.18-0.05,4.76,0.03
			c1.07,0.05,1.42-0.41,1.43-1.37c0-1.15,0.04-2.31,0.05-3.46c0.01-2.82-0.13-2.32,2.24-2.36c1.23-0.02,2.45,0,3.68,0
			c2.13-0.01,1.94-0.03,1.94,2.05c0,1.3,0.06,2.6-0.02,3.89c-0.05,0.9,0.37,1.14,1.13,1.15c1.66,0.02,3.32,0.09,4.97,0.08
			c0.83-0.01,1.15,0.3,1.14,1.13c-0.03,2.09-0.04,4.18,0,6.27c0.02,0.89-0.41,1.09-1.19,1.08c-1.59-0.03-3.17,0.03-4.76-0.02
			c-0.95-0.03-1.31,0.35-1.27,1.25c0.02,0.57,0.03,1.16-0.04,1.73c-0.28,2.3,0.36,3.72,2.6,5.09c6.53,3.99,7.03,12.08,1.41,17.28
			c-0.31,0.29-0.63,0.57-1.06,0.95c4.93,3.85,9.77,7.63,14.62,11.42c10.17,7.95,20.34,15.89,30.51,23.84
			c0.28,0.22,0.57,0.44,0.85,0.67c1.28,1.07,1.32,1.2,0.38,2.67c-1.01,1.58-2.02,3.16-3.1,4.69c-0.69,0.98-0.99,1.99-0.99,3.21
			c0.04,10.6,0.02,21.2,0.02,31.8c0,0.43,0.01,0.87,0,1.3c-0.01,0.61,0.26,0.94,0.9,0.93c0.29-0.01,0.58,0,0.87,0
			c6.49,0,12.98-0.01,19.47,0.01c1.77,0,1.66-0.02,1.66-1.64c0-22.07,0-44.13-0.01-66.2c0-1.69-0.03-1.7-1.63-1.76
			c-0.72-0.03-1.45,0.03-2.16-0.02c-1.55-0.11-2.13-1.09-1.41-2.46c3.19-6.13,6.4-12.26,9.61-18.38
			c5.34-10.21,10.68-20.42,16.02-30.63c0.3-0.57,0.57-1.15,0.9-1.81c-0.51-0.6-1.26-0.71-1.84-1.07c-5.01-3.02-5.19-9.44-0.37-12.72
			c0.52-0.35,1.39-0.39,1.51-1.09c0.15-0.91,0.07-1.87,0.06-2.8c-0.01-0.61-0.51-0.61-0.94-0.61c-0.87-0.02-1.73-0.04-2.6,0
			c-0.86,0.04-1.14-0.35-1.12-1.16c0.03-1.3,0.05-2.6-0.01-3.89c-0.04-0.98,0.4-1.27,1.29-1.22c0.79,0.04,1.59-0.02,2.38,0.01
			c0.75,0.03,1.04-0.33,1.01-1.04c-0.01-0.22,0.01-0.43,0.01-0.65c0.09-2.84,0.09-2.84,2.84-2.84c0.86,0,1.72,0,2.72,0
			c0.33,1.18,0.16,2.32,0.16,3.43c0.01,0.73,0.28,1.06,1,1.05c0.29,0,0.58,0.02,0.86,0.03c2.87,0.1,2.87,0.1,2.87,3.07
			c0,3.11,0,3.11-3.15,3.22c-0.52,0.02-1.18-0.26-1.46,0.53c-0.33,0.93-0.09,2.81,0.47,3.21c0.29,0.21,0.64,0.33,0.94,0.52
			c2.37,1.56,3.98,3.65,3.85,6.59c-0.14,3.03-1.65,5.31-4.45,6.65C356.45,64.42,355.99,64.49,355.75,64.96z M143.69,112.19
			l-0.06,0.05l0.04-0.07c0.05-0.02,0.11-0.03,0.16-0.05c0.03-0.02,0.04-0.06,0.06-0.09C143.82,112.08,143.76,112.14,143.69,112.19z
			 M189.13,108.3c-0.06-0.24-0.14-0.44-0.44-0.43c0.13-0.54-0.14-0.97-0.37-1.42c-6.67-12.69-13.33-25.39-20.02-38.08
			c-0.15-0.29-0.14-0.93-0.8-0.71c-0.4,6.4-0.19,43.27,0.3,45.14c1.68-3.06,3.3-6.02,4.92-8.97c1.61-2.92,3.06-5.93,5.09-8.97
			c2.07,2.52,3.86,4.76,5.73,6.94c1.73,2.01,3.19,4.25,5.18,6.04c0.04,0.25,0.17,0.41,0.44,0.44c0.12,0.08-0.09,0.38,0.22,0.34
			C189.29,108.51,189.21,108.4,189.13,108.3z M331.52,110.87c0.44-0.11,0.77-0.35,0.94-0.78c2.94-1.79,5.54-4.05,8.3-6.1
			c3.24-2.41,3.12-1.71,1.01-5.31c-0.05-0.09-0.24-0.11-0.47-0.2c-0.48,0.56-1,1.14-1.48,1.75c-2.51,3.21-5.33,6.18-7.59,9.6
			c-0.42,0.23-0.75,0.52-0.69,1.06c-0.2,0.03-0.25,0.08-0.13,0.12C331.43,111.03,331.48,110.93,331.52,110.87z M188.28,110.86
			c0.03,0.03,0.07,0.07,0.1,0.1c-0.04-0.03-0.08-0.05-0.12-0.08c-1.73-2.65-3.95-4.91-5.91-7.39c-1.36-1.72-2.8-3.39-4.21-5.08
			c-0.84,0.63-1.03,1.44-1.41,2.11c-0.77,1.38-0.75,1.41,0.57,2.41c3.22,2.42,6.44,4.83,9.66,7.24
			C187.37,110.47,187.73,110.84,188.28,110.86z M144.99,111.32c1.33-0.25,2.26-1.22,3.34-1.91c2.92-1.84,5.8-3.76,8.69-5.67
			c0.53-0.35,1.19-0.68,0.73-1.52c-0.69-1.24-1.1-2.64-2.17-3.91c-3.58,4.19-7.08,8.29-10.57,12.4
			C144.91,110.83,144.99,111.11,144.99,111.32c-0.11,0-0.21,0.01-0.32,0.02c0.03,0.08,0.06,0.16,0.09,0.23
			C144.83,111.49,144.91,111.4,144.99,111.32z M374.66,111.46c0.14,0.16,0.29,0.37,0.48,0.07c0.02-0.03-0.16-0.19-0.25-0.3
			c-2.2-3.11-4.89-5.81-7.34-8.7c-1.19-1.4-2.22-2.97-3.84-4.12c-0.6,1.19-1.13,2.28-1.7,3.36c-0.5,0.94-0.26,1.57,0.64,2.14
			c2.37,1.48,4.69,3.06,7.05,4.56C371.34,109.49,372.84,110.74,374.66,111.46z M244.54,114.79c-0.81,0-1.26,0.64-1.82,1.06
			c-10.81,8.13-21.62,16.27-32.42,24.41c-1.34,1.01-2.65,2.07-3.97,3.1c4.37,0.34,8.6,0.3,12.82,0.36c1.26,0.02,2.1-0.35,2.92-1.36
			c5.76-7.09,11.63-14.1,17.39-21.19c1.72-2.11,3.66-4.04,5.06-6.41c0.22-0.08,0.25-0.15,0.1-0.17
			C244.6,114.6,244.57,114.73,244.54,114.79z M269.19,113.93c-0.05-0.04-0.09-0.08-0.14-0.11c0.05,0.03,0.11,0.06,0.16,0.09
			c0.16,0.32,0.27,0.67,0.49,0.94c7.24,9.22,14.51,18.43,21.73,27.68c0.72,0.92,1.47,1.19,2.56,1.18c3.96-0.05,7.92-0.01,11.88-0.03
			c0.36,0,0.88,0.28,1.08-0.35c-0.27-0.55-0.79-0.83-1.24-1.18c-11.68-9.13-23.36-18.25-35.05-27.37
			C270.21,114.43,269.83,113.96,269.19,113.93z M375.54,108.4c0.1,0.19,0.12,0.62,0.42,0.43c0.24-0.15,0.03-0.45-0.22-0.6
			c-0.15-0.4-0.26-0.82-0.45-1.2c-6.75-13.04-13.51-26.08-20.28-39.11c-0.17-0.33-0.22-0.9-0.76-0.76c0,15.14,0,30.26,0,45.37
			c0.09,0.02,0.18,0.03,0.26,0.05c2.91-5.85,5.81-11.71,8.74-17.6c0.75,0.33,1.12,0.88,1.54,1.36c2.37,2.71,4.7,5.46,7.09,8.15
			C373.06,105.82,374.09,107.3,375.54,108.4z M115.92,279.69c-0.03,0.11-0.06,0.22-0.09,0.33c0.61,0.38,1.23,0.73,1.82,1.13
			c5.76,3.96,9.13,9.13,9.12,16.41c-0.06,29.85,0.01,59.71,0.03,89.56c0,0.58,0.02,1.15,0,1.73c-0.01,0.71,0.29,1.07,1.02,1.05
			c0.5-0.02,1.01,0,1.51,0c8.29-0.01,16.59-0.01,24.88-0.02c2.72,0,2.53,0.26,2.53-2.59c0-20.7,0-41.39,0-62.09
			c0-1.66,0.1-3.31,0.27-4.96c1.15-11.12,11.41-23.24,27.62-20.93c11.91,1.7,20.43,11.95,20.44,24c0.02,21.27,0.04,42.55,0.06,63.82
			c0,0.58,0.02,1.15,0.01,1.73c-0.02,0.72,0.31,1.06,1.04,1.03c0.5-0.02,1.01,0,1.51,0c7.57-0.01,15.15,0,22.72-0.02
			c3.5-0.01,3.17,0.46,3.17-3.06c0.01-20.91,0-41.82,0-62.74c0-2.09,0.07-4.17,0.52-6.23c2.61-11.99,13.83-19.96,26.41-18.73
			c11.67,1.14,21.18,11.81,21.19,23.8c0.02,21.34,0.04,42.69,0.06,64.03c0,0.58,0.04,1.16,0,1.73c-0.07,0.97,0.41,1.28,1.3,1.22
			c0.5-0.03,1.01,0,1.51,0c7.57-0.01,15.15-0.01,22.72-0.02c3.21-0.01,2.9,0.29,2.9-2.9c0.02-21.42,0.02-42.83,0.05-64.25
			c0.02-14.57,13.9-27.24,30.59-22.82c11.16,2.95,17.63,13.92,17.57,23.1c-0.13,21.42,0.01,42.83,0.04,64.25
			c0,3.03-0.06,2.63,2.73,2.64c7.14,0.01,14.28,0.01,21.42,0c3.23-0.01,2.93,0.35,2.93-2.86c0.03-30,0.05-60,0.07-89.99
			c0-1.22-0.03-2.44,0.24-3.66c1.2-5.47,4.46-9.42,9.05-12.41c0.55-0.36,1.29-0.53,1.76-1.29
			C302.96,279.69,209.44,279.69,115.92,279.69z M256.04,264.01c47.31,0,94.62,0,141.94,0c0.65,0,1.3-0.04,1.95,0.01
			c0.98,0.06,1.52-0.27,1.43-1.34c-0.04-0.43,0-0.86,0-1.3c-0.01-10.46-0.01-20.91-0.04-31.37c-0.01-3.15,0.32-2.77-2.77-2.77
			c-94.91-0.01-189.83-0.01-284.74,0c-0.5,0-1.01,0.03-1.51,0c-0.8-0.04-1.21,0.28-1.18,1.12c0.02,0.58,0,1.15,0,1.73
			c-0.01,10.38-0.02,20.77-0.03,31.15c0,3.13-0.21,2.76,2.8,2.76C161.27,264.01,208.65,264.01,256.04,264.01z M402.77,219.02
			c0.11-0.69-0.19-0.93-0.42-1.19c-7.29-8.75-14.61-17.48-21.84-26.28c-1.13-1.37-2.3-1.85-4.05-1.85
			c-22.72,0.05-45.44,0.05-68.15,0.01c-1.52,0-2.78,0.39-4.04,1.19c-5.59,3.57-11.22,7.07-16.81,10.65
			c-1.07,0.69-2.13,1.04-3.42,1.04c-17.96-0.03-35.92-0.03-53.87,0c-1.13,0-2.08-0.26-3.04-0.87c-5.59-3.58-11.22-7.07-16.79-10.67
			c-1.39-0.9-2.77-1.34-4.44-1.33c-22.14,0.04-44.28,0.05-66.42-0.01c-1.67,0-2.81,0.52-3.93,1.71
			c-8.36,8.86-16.78,17.67-25.17,26.51c-0.27,0.28-0.75,0.5-0.52,1.11C207.47,219.02,305.1,219.02,402.77,219.02z M312.13,354.94
			c-0.01,0-0.02,0-0.02,0c0,10.81,0,21.62,0,32.43c0,0.5,0.03,1.01,0,1.51c-0.04,0.76,0.33,1.04,1.04,1c0.36-0.02,0.72,0,1.08,0
			c13.41,0,26.82,0,40.22,0c0.43,0,0.86,0,1.3-0.01c0.52,0,0.79-0.26,0.8-0.79c0.01-0.5,0.01-1.01,0.01-1.51c0-9.59,0-19.17,0-28.76
			c0-11.82,0.05-23.64-0.02-35.46c-0.07-13.07-10.22-21.22-19.52-22.29c-12.99-1.49-24.88,8.75-24.89,21.87
			C312.12,333.61,312.13,344.28,312.13,354.94z M235.47,354.83c0,10.88,0,21.77,0,32.65c0,0.5,0.01,1.01,0,1.51
			c-0.02,0.63,0.26,0.93,0.9,0.91c0.5-0.01,1.01,0,1.51,0c13.19,0,26.38,0,39.58,0c2.67,0,2.45,0.34,2.45-2.4
			c-0.03-21.41-0.08-42.81-0.09-64.22c0-4.53-1.22-8.65-3.7-12.43c-5.29-8.05-15.61-11.81-24.86-9.02
			c-9.15,2.76-15.78,11.56-15.78,20.99C235.46,333.5,235.47,344.16,235.47,354.83z M158.83,354.57c-0.02,0-0.03,0-0.05,0
			c0,11.18,0,22.35,0,33.53c0,1.93,0.01,1.79,1.75,1.79c13.63,0,27.26,0,40.89-0.01c1.65,0,1.69-0.03,1.69-1.64
			c0.01-21.99,0.03-43.98-0.02-65.97c-0.01-4.05-1.18-7.85-3.51-11.18c-5.58-7.97-13.26-11.35-22.85-9.73
			c-11.76,1.99-18.15,13.51-17.96,21.19C159.04,333.22,158.83,343.9,158.83,354.57z M256.44,399.94c-44.21,0-88.42,0-132.63,0
			c-0.58,0-1.16,0.04-1.73-0.01c-1.03-0.09-1.39,0.35-1.38,1.37c0.04,2.67-0.02,5.34-0.01,8c0.01,3.23-0.38,2.86,2.89,2.86
			c88.42,0.01,176.84,0,265.26,0c0.43,0,0.87,0.01,1.3,0c1.56-0.05,1.59-0.05,1.6-1.55c0.02-2.6,0.01-5.19-0.02-7.79
			c-0.04-3.28,0.4-2.89-2.86-2.89C344.72,399.93,300.58,399.94,256.44,399.94z M257.15,200.57c8.5,0,17.01,0.01,25.51-0.01
			c1.68,0,1.68-0.04,1.72-1.65c0.01-0.29,0-0.58,0-0.86c0-14.41,0-28.82,0-43.23c0-0.43-0.03-0.87,0-1.3
			c0.05-0.83-0.32-1.18-1.14-1.14c-0.57,0.03-1.15,0-1.73,0c-11.96,0-23.93,0-35.89,0c-4.76,0-9.51,0.02-14.27-0.01
			c-1.05-0.01-1.68,0.24-1.52,1.43c0.05,0.35,0.01,0.72,0.01,1.08c0,14.41,0,28.82,0,43.23c0,0.43,0.03,0.87,0,1.3
			c-0.05,0.83,0.33,1.19,1.15,1.16c0.5-0.02,1.01,0,1.51,0C240.72,200.57,248.94,200.57,257.15,200.57z M256.2,270.66
			c-49.54,0-99.08,0-148.62,0c-0.58,0-1.16,0.04-1.73-0.01c-1.07-0.09-1.63,0.27-1.53,1.44c0.07,0.79,0,1.59,0.01,2.38
			c0.05,3.52-0.48,3.09,3.1,3.09c98.94,0.01,197.88,0.01,296.81-0.01c1.2,0,2.7,0.55,3.52-0.34c0.78-0.86,0.28-2.35,0.28-3.55
			c0-3.31,0.42-3-3-3C355.43,270.66,305.82,270.66,256.2,270.66z M256.05,398.09c42.85,0,85.69,0,128.54-0.01
			c3.79,0,3.28,0.54,3.29-3.34c0.01-3.44,0.37-2.98-2.99-2.98c-85.69-0.01-171.38-0.01-257.08,0c-3.84,0-3.41-0.63-3.44,3.44
			c-0.02,3.3-0.16,2.89,2.92,2.89C170.21,398.09,213.13,398.09,256.05,398.09z M289.42,143.64c-0.04-0.81-0.46-1.14-0.76-1.52
			c-8.18-10.44-16.37-20.86-24.54-31.31c-0.68-0.86-1.39-1.3-2.54-1.27c-2.81,0.08-5.62,0.07-8.44,0c-1.12-0.03-1.88,0.33-2.59,1.19
			c-8.63,10.54-17.28,21.06-25.92,31.59c-0.3,0.36-0.79,0.69-0.47,1.31C245.86,143.64,267.55,143.64,289.42,143.64z M256.21,221.17
			c-49.84,0-99.68,0-149.52,0c-2.35,0-2.35,0.01-2.37,1.89c-0.03,2.1-0.03,2.1,2.14,2.12c0.58,0,1.15,0,1.73,0
			c87.28,0,174.55,0,261.83,0c11.97,0,23.95,0,35.92,0c2.19,0,2.19-0.01,2.16-2.1c-0.02-1.88-0.02-1.89-1.93-1.92
			c-0.5-0.01-1.01,0-1.51,0C355.17,221.17,305.69,221.17,256.21,221.17z M256.21,268.81c48.4,0,96.79,0,145.19,0
			c0.58,0,1.16-0.03,1.73,0.01c0.96,0.07,1.49-0.19,1.45-1.3c-0.05-1.33-0.12-1.49-1.44-1.57c-0.36-0.02-0.72-0.01-1.08-0.01
			c-97.23,0-194.45,0-291.68,0c-0.5,0-1.01,0-1.51,0.02c-0.58,0.02-0.9,0.27-1,0.89c-0.23,1.51,0.08,1.92,1.63,1.95
			c0.5,0.01,1.01,0,1.51,0C159.42,268.81,207.81,268.81,256.21,268.81z M165.38,169.75c-0.01,0-0.03,0-0.04,0
			c0-5.62,0.01-11.23-0.01-16.85c0-1.67-0.04-1.71-1.65-1.71c-6.48-0.02-12.96-0.01-19.44,0c-1.78,0-1.81,0.03-1.81,1.77
			c-0.01,11.02-0.01,22.03,0,33.05c0,1.79,0.03,1.82,1.76,1.82c6.48,0,12.96-0.02,19.44-0.04c1.72-0.01,1.74-0.03,1.75-1.84
			C165.38,180.55,165.38,175.15,165.38,169.75z M377.09,169.48c-0.01,0-0.02,0-0.03,0c0-5.41,0.01-10.81,0-16.22
			c0-2.06-0.02-2.07-1.95-2.08c-6.34-0.01-12.69-0.01-19.03,0c-1.91,0-1.94,0.03-1.94,1.9c-0.01,10.96-0.01,21.91,0,32.87
			c0,1.85,0.03,1.88,1.96,1.87c6.34,0,12.69-0.02,19.03-0.04c1.95-0.01,1.96-0.03,1.97-2.09
			C377.09,180.3,377.09,174.89,377.09,169.48z M227.93,199.32c0-0.7,0-1.47,0-2.23c0-12.04,0-24.09,0-36.13
			c0-2.31,0.02-4.62-0.01-6.92c-0.02-1.62-0.04-1.65-1.72-1.66c-3.61-0.02-7.21-0.01-10.82-0.01c-1.44,0-2.89,0.06-4.33-0.02
			c-1.17-0.06-1.57,0.44-1.45,1.52c0.02,0.21,0,0.43,0,0.65c-0.01,10.6,0.01,21.2-0.06,31.8c-0.01,1.39,0.37,2.23,1.58,2.97
			c5.1,3.12,10.14,6.36,15.21,9.54C226.75,199.09,227.1,199.53,227.93,199.32z M286.71,199.46c0.35-0.13,0.57-0.17,0.74-0.28
			c5.43-3.42,10.84-6.87,16.29-10.24c0.91-0.57,0.99-1.28,0.99-2.18c-0.02-10.88-0.03-21.77-0.05-32.65c0-1.7-0.04-1.72-1.85-1.72
			c-4.61-0.01-9.23-0.01-13.84,0c-2.71,0.01-2.46-0.23-2.47,2.41c-0.01,14.2,0,28.4,0,42.6
			C286.52,198.03,286.4,198.68,286.71,199.46z M331.43,169.51c0,5.48-0.01,10.96,0,16.44c0,1.86,0.03,1.88,1.93,1.88
			c5.7,0,11.39-0.01,17.09-0.05c1.75-0.01,1.78-0.04,1.78-1.84c0-10.96-0.02-21.92-0.04-32.88c0-1.85-0.03-1.87-1.97-1.88
			c-5.62-0.01-11.25-0.01-16.87,0c-1.9,0-1.92,0.02-1.92,1.89C331.43,158.56,331.43,164.04,331.43,169.51z M167.41,169.3
			c0,5.55-0.01,11.1,0,16.65c0,1.86,0.03,1.88,1.93,1.88c5.7,0,11.39-0.01,17.09-0.05c1.75-0.01,1.78-0.04,1.78-1.84
			c0-10.96-0.02-21.92-0.04-32.88c0-1.85-0.03-1.87-1.97-1.88c-5.62-0.01-11.25-0.01-16.87,0c-1.9,0-1.92,0.02-1.93,1.89
			C167.4,158.48,167.41,163.89,167.41,169.3z M354.12,133.78c0,4.68,0.02,9.36-0.02,14.04c-0.01,1.07,0.27,1.55,1.45,1.54
			c6.7-0.05,13.4-0.06,20.1-0.02c1.18,0.01,1.47-0.46,1.46-1.54c-0.04-9.29-0.03-18.58-0.06-27.87c0-1.49-0.05-1.54-1.62-1.54
			c-6.48-0.02-12.96-0.02-19.45,0c-1.83,0-1.85,0.04-1.86,1.99C354.11,124.85,354.12,129.32,354.12,133.78z M142.42,134.03
			c0,4.46-0.01,8.93,0,13.39c0,1.89,0.02,1.91,1.88,1.92c6.41,0,12.82,0,19.22-0.02c1.82,0,1.84-0.03,1.84-1.96c0-9-0.02-18-0.04-27
			c0-1.93-0.03-1.97-1.87-1.97c-6.41-0.02-12.82-0.02-19.22,0c-1.78,0-1.81,0.04-1.81,1.81
			C142.41,124.82,142.42,129.43,142.42,134.03z M188.22,134.04c-0.01,0-0.03,0-0.04,0c0-4.68,0.01-9.36-0.01-14.04
			c-0.01-1.52-0.07-1.59-1.6-1.59c-5.91-0.02-11.81,0.01-17.72-0.03c-1.16-0.01-1.47,0.44-1.46,1.54
			c0.03,9.29,0.01,18.58,0.03,27.87c0,1.51,0.05,1.55,1.6,1.55c5.84,0.01,11.67,0,17.51-0.02c1.66-0.01,1.69-0.04,1.7-1.67
			C188.23,143.11,188.22,138.58,188.22,134.04z M352.25,134.05c-0.01,0-0.03,0-0.04,0c0-4.68,0.01-9.36-0.01-14.04
			c-0.01-1.53-0.06-1.6-1.59-1.6c-5.91-0.02-11.81,0.01-17.72-0.03c-1.15-0.01-1.48,0.42-1.47,1.53c0.03,9.29,0.01,18.58,0.03,27.87
			c0,1.52,0.05,1.56,1.59,1.56c5.84,0.01,11.67,0,17.51-0.02c1.69-0.01,1.7-0.04,1.71-1.87
			C352.26,142.98,352.25,138.52,352.25,134.05z M266.63,77.08c-0.01,0-0.01,0-0.02,0c0-0.36,0.01-0.72,0-1.08
			c-0.05-1.47-0.06-1.47-1.6-1.51c-0.29-0.01-0.58,0.01-0.86,0c-1.43-0.08-3.24,0.59-4.19-0.26c-1.06-0.95-0.41-2.84-0.51-4.32
			c-0.18-2.61,0.5-2.45-2.66-2.46c-0.14,0-0.29,0.01-0.43,0.01c-0.74-0.04-1.02,0.32-1.01,1.04c0.02,1.58-0.04,3.17,0,4.75
			c0.03,0.96-0.38,1.25-1.28,1.24c-1.66-0.03-3.31,0.01-4.97,0.04c-1.82,0.04-1.06,1.48-1.01,2.25c0.05,0.85-0.91,2.38,1.01,2.47
			c1.65,0.08,3.31,0.08,4.97,0.05c0.91-0.01,1.3,0.29,1.27,1.24c-0.06,1.87-0.19,3.76,0,5.61c0.22,2.11-0.36,3.39-2.55,3.83
			c-0.67,0.13-1.3,0.61-1.88,1.03c-3.55,2.51-4.89,7.16-3.01,10.9c1.75,3.49,4.63,5.43,8.59,5.62c3.97,0.19,7.23-1.23,9.41-4.61
			c2.39-3.7,1.79-7.94-1.39-11c-1.16-1.11-2.49-1.96-4.02-2.47c-0.71-0.23-1.07-0.57-1.06-1.37c0.04-2.52,0.03-5.04,0-7.56
			c-0.01-0.95,0.42-1.24,1.31-1.22c1.58,0.03,3.17-0.05,4.76-0.03c0.81,0.01,1.21-0.27,1.14-1.12
			C266.6,77.81,266.63,77.44,266.63,77.08z M351.74,112.83c0.12-0.05,0.25-0.1,0.37-0.14c0-15.13,0-30.26,0-45.41
			c-1.46,1.69-20.11,37.52-20.29,39.36c3.5-3.67,6.48-7.81,10.1-11.79C345.31,101.06,348.52,106.94,351.74,112.83z M165.23,66.83
			c-2.75,4.25-20.67,39.38-20.96,41c0.72,0.1,0.97-0.51,1.32-0.9c1.99-2.28,3.94-4.59,5.92-6.88c1.17-1.37,2.33-2.75,3.55-4.07
			c0.98-1.06,1.18-1,1.84,0.19c0.21,0.38,0.39,0.77,0.58,1.16c2.17,4.39,4.33,8.79,6.51,13.17c0.3,0.61,0.5,1.31,1.24,1.97
			C165.23,97.21,165.23,82.2,165.23,66.83z M224.96,145.61c1.1,1.25,1.96,2.12,2.7,3.09c0.96,1.24,2.11,1.66,3.71,1.65
			c11.09-0.07,22.19-0.04,33.29-0.04c6.34,0,12.68,0,19.02-0.01c0.63,0,1.4,0.24,1.86-0.28c1.2-1.36,2.58-2.6,3.52-4.42
			C267.69,145.61,246.55,145.61,224.96,145.61z M166.27,63.22c2.98,0.01,5.63-1.98,6.21-4.69c0.54-2.51-0.76-4.92-3.6-6.15
			c-1.15-0.49-1.51-1.12-1.37-2.25c0.07-0.57-0.03-1.15,0.02-1.72c0.1-1.12-0.5-2.49,0.31-3.31c0.74-0.75,2.06-0.26,3.12-0.27
			c0.93-0.01,1.25-0.36,1.23-1.28c-0.01-0.87-0.37-1.14-1.17-1.11c-0.79,0.03-1.58-0.02-2.37-0.02s-1.19-0.31-1.16-1.16
			c0.03-0.86-0.01-1.73-0.02-2.59c0-0.62-0.29-0.86-0.92-0.9c-1.05-0.07-1.16,0.53-1.16,1.35c-0.01,1,0.26,2.25-0.23,2.95
			c-0.63,0.9-2.01,0.32-3.05,0.35c-0.88,0.03-1.3,0.22-1.3,1.21c0.01,0.99,0.44,1.24,1.31,1.19c0.57-0.04,1.15,0.04,1.73-0.01
			c1.07-0.1,1.6,0.24,1.52,1.43c-0.08,1.29-0.09,2.59,0,3.88c0.09,1.18-0.31,1.73-1.45,2.19c-2.86,1.15-4.26,3.71-3.72,6.31
			C160.73,61.12,163.47,63.21,166.27,63.22z M359.39,57.27c-0.01-2.18-1.26-3.93-3.41-4.78c-1.57-0.62-2.15-1.44-1.87-3.02
			c0.05-0.28-0.02-0.58,0.01-0.86c0.11-1.2-0.5-2.63,0.33-3.53c0.7-0.76,2.06-0.26,3.12-0.26c0.97,0,1.21-0.42,1.21-1.31
			c0-0.89-0.41-1.11-1.19-1.08c-0.86,0.02-1.73-0.01-2.59-0.04c-0.6-0.02-0.91-0.32-0.91-0.95c0.01-0.94-0.02-1.87-0.03-2.81
			c0-0.64-0.33-0.84-0.95-0.87c-0.9-0.04-1.08,0.43-1.11,1.19c-0.05,1.07,0.37,2.38-0.28,3.15c-0.7,0.82-2.04,0.26-3.1,0.31
			c-0.76,0.03-1.2,0.17-1.19,1.07c0.01,0.84,0.13,1.41,1.16,1.32c0.57-0.05,1.15-0.02,1.73,0c1.56,0.04,1.58,0.04,1.61,1.52
			c0.02,1.37-0.04,2.74,0.02,4.1c0.04,0.98-0.23,1.53-1.24,1.9c-2.03,0.74-3.35,2.21-3.63,4.43c-0.42,3.35,2.17,6.26,5.73,6.46
			C356.33,63.41,359.33,60.83,359.39,57.27z M351.47,116.42c-2.19-4.01-4.18-7.67-6.19-11.32c-0.78-1.42-0.81-1.41-2.21-0.37
			c-2.77,2.07-5.54,4.15-8.3,6.23c-2.27,1.72-4.53,3.47-7.12,5.46C335.76,116.42,343.42,116.42,351.47,116.42z M168.11,116.38
			c8.09,0,15.67,0,23.26,0c0.05-0.11,0.09-0.21,0.14-0.32c-5.43-4.08-10.86-8.16-16.49-12.4
			C172.68,107.95,170.47,112.03,168.11,116.38z M164.3,116.41c0.16-0.69-0.04-1-0.19-1.32c-1.43-2.9-2.85-5.8-4.32-8.68
			c-0.78-1.54-0.88-1.57-2.41-0.57c-4.94,3.21-9.86,6.45-14.78,9.69c-0.32,0.21-0.87,0.3-0.68,0.88
			C149.39,116.41,156.85,116.41,164.3,116.41z M377.82,116.41c-0.11-0.22-0.14-0.39-0.23-0.45c-5.29-3.46-10.59-6.92-15.9-10.35
			c-1.14-0.74-1.25-0.69-1.9,0.65c-1.4,2.83-2.76,5.69-4.12,8.54c-0.23,0.49-0.67,0.96-0.42,1.6
			C362.76,116.41,370.26,116.41,377.82,116.41z M205.09,145.53c1.2,1.45,2.12,2.46,2.92,3.56c0.72,0.99,1.62,1.24,2.79,1.23
			c4.54-0.05,9.08-0.01,13.62-0.03c0.53,0,1.13,0.2,1.81-0.36c-1.28-1.32-2.52-2.59-3.76-3.87c-0.38-0.39-0.83-0.53-1.36-0.53
			C215.93,145.53,210.76,145.53,205.09,145.53z M308.11,145.84c-0.23-0.14-0.35-0.27-0.46-0.27c-4.9-0.02-9.79-0.04-14.69-0.05
			c-0.43,0-0.88-0.02-1.19,0.36c-1.13,1.36-2.45,2.57-3.4,4.18c0.82,0.39,1.54,0.24,2.23,0.24c3.6,0.02,7.2,0.01,10.8,0.01
			c4.59,0,4.59,0,6.64-4.14C308.08,146.12,308.08,146.04,308.11,145.84z M331.05,107.1c-0.06,0.1-0.22,0.27-0.25,0.45
			c-0.02,0.17,0.17,0.26,0.28,0.15c0.14-0.13,0.3-0.31,0.33-0.48C331.45,107.05,331.28,106.98,331.05,107.1z M143.91,108.32
			c-0.05,0.04-0.13,0.08-0.13,0.13c0,0.05,0.07,0.1,0.1,0.16c0.05-0.04,0.13-0.08,0.13-0.13
			C144.02,108.43,143.95,108.37,143.91,108.32z"/>
		<path class="st1" d="M115.92,279.69c93.52,0,187.03,0,280.75,0c-0.47,0.76-1.21,0.93-1.76,1.29c-4.59,3-7.85,6.94-9.05,12.41
			c-0.27,1.22-0.24,2.44-0.24,3.66c-0.03,30-0.05,60-0.07,89.99c0,3.21,0.3,2.85-2.93,2.86c-7.14,0.01-14.28,0.01-21.42,0
			c-2.79,0-2.73,0.39-2.73-2.64c-0.03-21.42-0.17-42.83-0.04-64.25c0.06-9.18-6.41-20.14-17.57-23.1
			c-16.69-4.42-30.57,8.26-30.59,22.82c-0.03,21.42-0.03,42.83-0.05,64.25c0,3.19,0.31,2.89-2.9,2.9
			c-7.57,0.01-15.15,0.01-22.72,0.02c-0.5,0-1.01-0.03-1.51,0c-0.89,0.06-1.37-0.25-1.3-1.22c0.04-0.57,0-1.15,0-1.73
			c-0.02-21.34-0.04-42.69-0.06-64.03c-0.01-11.98-9.52-22.65-21.19-23.8c-12.59-1.23-23.8,6.73-26.41,18.73
			c-0.45,2.07-0.52,4.14-0.52,6.23c0,20.91,0,41.82,0,62.74c0,3.52,0.33,3.05-3.17,3.06c-7.57,0.02-15.15,0.02-22.72,0.02
			c-0.5,0-1.01-0.02-1.51,0c-0.73,0.03-1.06-0.31-1.04-1.03c0.01-0.58-0.01-1.15-0.01-1.73c-0.02-21.27-0.04-42.55-0.06-63.82
			c-0.01-12.05-8.53-22.3-20.44-24c-16.2-2.31-26.46,9.81-27.62,20.93c-0.17,1.65-0.27,3.3-0.27,4.96c0.01,20.7,0,41.39,0,62.09
			c0,2.85,0.19,2.59-2.53,2.59c-8.29,0.01-16.59,0.01-24.88,0.02c-0.5,0-1.01-0.02-1.51,0c-0.74,0.03-1.04-0.34-1.02-1.05
			c0.01-0.58,0-1.15,0-1.73c-0.02-29.85-0.09-59.71-0.03-89.56c0.01-7.28-3.36-12.46-9.12-16.41c-0.59-0.4-1.21-0.75-1.82-1.13
			C115.87,279.91,115.9,279.8,115.92,279.69z"/>
		<path class="st1" d="M256.04,264.01c-47.38,0-94.77,0-142.15,0c-3.02,0-2.8,0.36-2.8-2.76c0.01-10.38,0.02-20.77,0.03-31.15
			c0-0.58,0.03-1.15,0-1.73c-0.04-0.84,0.37-1.16,1.18-1.12c0.5,0.03,1.01,0,1.51,0c94.91,0,189.83,0,284.74,0
			c3.08,0,2.76-0.38,2.77,2.77c0.02,10.46,0.03,20.91,0.04,31.37c0,0.43-0.03,0.87,0,1.3c0.09,1.07-0.46,1.4-1.43,1.34
			c-0.65-0.04-1.3-0.01-1.95-0.01C350.66,264.01,303.35,264.01,256.04,264.01z M289.66,257.4L289.66,257.4c2.08,0,4.17-0.01,6.25,0
			c0.77,0,1.25-0.27,1.23-1.11c-0.09-3.59,0.32-7.2-0.22-10.76c-0.61-4-3.67-6.34-7.8-6.16c-3.63,0.16-6.54,3.03-6.71,6.88
			c-0.15,3.23-0.04,6.47-0.12,9.7c-0.03,1.17,0.49,1.5,1.55,1.47C285.78,257.37,287.72,257.4,289.66,257.4z M222.61,257.4
			c2.09,0,4.18-0.01,6.27,0c0.79,0,1.17-0.3,1.17-1.15c0.01-2.88,0.14-5.76,0.11-8.64c-0.02-1.74-0.43-3.43-1.33-4.95
			c-1.5-2.54-4.8-3.86-7.9-3.16c-2.68,0.61-5.28,3.24-5.41,5.81c-0.18,3.59-0.14,7.2-0.23,10.8c-0.03,1.1,0.55,1.32,1.49,1.31
			C218.72,257.38,220.67,257.4,222.61,257.4z M356.63,257.4c2.02,0,4.04-0.04,6.05,0.02c1.04,0.03,1.39-0.38,1.38-1.39
			c-0.05-3.31,0.06-6.63-0.07-9.94c-0.15-3.89-3.32-6.71-7.32-6.71c-3.92,0-7.13,2.92-7.26,6.79c-0.12,3.24-0.01,6.48-0.07,9.73
			c-0.02,1.1,0.3,1.57,1.46,1.53C352.74,257.35,354.68,257.4,356.63,257.4z M334.33,257.4c2.01,0,4.03-0.04,6.04,0.02
			c1.14,0.04,1.49-0.42,1.46-1.52c-0.06-2.8-0.03-5.61-0.02-8.41c0.01-1.02-0.14-2.01-0.4-2.98c-0.93-3.44-4.43-5.6-8.21-5.1
			c-3.29,0.43-6,3.46-6.06,6.81c-0.06,3.23-0.08,6.47-0.1,9.7c-0.01,1.37,0.06,1.45,1.46,1.47
			C330.44,257.42,332.39,257.4,334.33,257.4z M267.47,257.4c1.95,0,3.9-0.04,5.84,0.02c1.14,0.04,1.5-0.4,1.47-1.52
			c-0.06-2.74-0.03-5.48-0.03-8.22c0-1.01-0.07-2.01-0.32-3c-0.89-3.52-4.22-5.67-8.1-5.3c-3.6,0.35-6.43,4.09-6.28,6.9
			c0.16,3.24,0.05,6.49,0,9.73c-0.01,1,0.3,1.44,1.36,1.41C263.44,257.36,265.46,257.4,267.47,257.4z M177.85,257.4
			c2.02,0,4.03-0.03,6.05,0.01c1.01,0.02,1.42-0.31,1.41-1.36c-0.05-3.31,0.07-6.63-0.05-9.94c-0.14-3.9-3.31-6.75-7.28-6.75
			c-3.94,0-7.15,2.89-7.29,6.76c-0.12,3.31-0.02,6.62-0.07,9.94c-0.02,1.06,0.41,1.38,1.41,1.36
			C173.96,257.37,175.91,257.4,177.85,257.4z M155.56,257.4c1.87,0,3.74,0.02,5.61,0c1.83-0.02,1.86-0.04,1.87-1.77
			c0.02-2.88,0.02-5.75-0.01-8.63c-0.01-0.71-0.11-1.44-0.28-2.13c-0.93-3.78-4.32-5.96-8.37-5.46c-3.52,0.44-6.23,4.26-6.03,7.1
			c0.22,3.15,0.06,6.33,0.02,9.49c-0.01,1.01,0.32,1.43,1.36,1.41C151.67,257.36,153.62,257.4,155.56,257.4z M379,257.4
			c2.09,0,4.18-0.01,6.27,0c0.78,0.01,1.2-0.26,1.19-1.12c-0.03-3.39,0.12-6.78-0.07-10.16c-0.23-4.06-3.46-6.82-7.55-6.76
			c-3.69,0.06-6.91,2.97-7.04,6.55c-0.12,3.38-0.02,6.78-0.08,10.16c-0.02,1.09,0.46,1.36,1.43,1.33
			C375.11,257.37,377.06,257.4,379,257.4z M200.37,257.4c1.87,0,3.75,0.02,5.62-0.01c1.69-0.02,1.72-0.04,1.73-1.65
			c0.02-2.96,0-5.91,0.01-8.87c0.01-1.33-0.34-2.57-0.95-3.73c-1.52-2.91-4.93-4.4-8.29-3.64c-3.02,0.68-5.38,3.55-5.43,6.72
			c-0.06,3.17-0.05,6.34-0.04,9.52c0.01,1.61,0.04,1.63,1.72,1.65C196.62,257.42,198.5,257.4,200.37,257.4z M133.21,257.4
			L133.21,257.4c2.09,0,4.18,0,6.27,0c0.63,0,1.16-0.11,1.16-0.92c-0.03-3.67,0.18-7.37-0.13-11.02c-0.33-3.89-3.67-6.27-7.85-6.08
			c-3.43,0.16-6.5,3.08-6.62,6.52c-0.12,3.38-0.02,6.78-0.08,10.16c-0.02,1.07,0.42,1.38,1.41,1.36
			C129.31,257.37,131.26,257.4,133.21,257.4z M311.83,257.4c2.09,0,4.18,0,6.27,0c0.7,0,1.31-0.08,1.3-1.01
			c-0.04-3.6,0.14-7.22-0.15-10.8c-0.3-3.8-3.59-6.33-7.54-6.23c-3.59,0.09-6.79,2.95-6.93,6.43c-0.14,3.45-0.04,6.92-0.08,10.37
			c-0.01,0.96,0.41,1.25,1.3,1.24C307.94,257.38,309.89,257.4,311.83,257.4z M245,257.4c2.02,0,4.04,0,6.05,0c0.7,0,1.31-0.07,1.3-1
			c-0.03-3.6,0.14-7.22-0.13-10.8c-0.29-3.8-3.56-6.33-7.52-6.24c-3.55,0.08-6.82,2.96-6.97,6.42c-0.16,3.45-0.03,6.92-0.07,10.38
			c-0.01,0.95,0.39,1.26,1.29,1.25C240.96,257.38,242.98,257.4,245,257.4z"/>
		<path class="st3" d="M402.77,219.02c-97.67,0-195.29,0-292.91,0c-0.23-0.6,0.25-0.83,0.52-1.11c8.39-8.83,16.81-17.64,25.17-26.51
			c1.12-1.19,2.26-1.71,3.93-1.71c22.14,0.06,44.28,0.05,66.42,0.01c1.67,0,3.05,0.44,4.44,1.33c5.57,3.6,11.21,7.1,16.79,10.67
			c0.95,0.61,1.91,0.87,3.04,0.87c17.96-0.02,35.92-0.03,53.87,0c1.29,0,2.35-0.35,3.42-1.04c5.59-3.57,11.22-7.07,16.81-10.65
			c1.26-0.8,2.51-1.2,4.04-1.19c22.72,0.04,45.44,0.05,68.15-0.01c1.74,0,2.92,0.47,4.05,1.85c7.23,8.8,14.55,17.52,21.84,26.28
			C402.57,218.09,402.88,218.33,402.77,219.02z"/>
		<path class="st1" d="M256.44,399.94c44.14,0,88.27,0,132.41,0.01c3.26,0,2.82-0.4,2.86,2.89c0.03,2.6,0.04,5.19,0.02,7.79
			c-0.01,1.5-0.05,1.51-1.6,1.55c-0.43,0.01-0.87,0-1.3,0c-88.42,0-176.84,0-265.26,0c-3.26,0-2.88,0.37-2.89-2.86
			c-0.01-2.67,0.05-5.34,0.01-8c-0.01-1.02,0.35-1.46,1.38-1.37c0.57,0.05,1.15,0.01,1.73,0.01
			C168.02,399.94,212.23,399.94,256.44,399.94z"/>
		<path class="st1" d="M257.15,200.57c-8.22,0-16.43,0-24.65,0c-0.5,0-1.01-0.02-1.51,0c-0.82,0.03-1.2-0.33-1.15-1.16
			c0.02-0.43,0-0.86,0-1.3c0-14.41,0-28.82,0-43.23c0-0.36,0.04-0.73-0.01-1.08c-0.15-1.2,0.47-1.44,1.52-1.43
			c4.76,0.03,9.51,0.01,14.27,0.01c11.96,0,23.93,0,35.89,0c0.58,0,1.15,0.03,1.73,0c0.82-0.04,1.19,0.31,1.14,1.14
			c-0.03,0.43,0,0.86,0,1.3c0,14.41,0,28.82,0,43.23c0,0.29,0.01,0.58,0,0.86c-0.05,1.61-0.05,1.65-1.72,1.65
			C274.16,200.57,265.66,200.57,257.15,200.57z M264.03,179.33c0.01,0,0.01,0,0.02,0c0-2.74,0.06-5.48-0.01-8.22
			c-0.12-4.42-3.37-7.7-7.64-7.81c-4.31-0.12-8.03,3.16-8.16,7.55c-0.17,5.76-0.04,11.54-0.06,17.3c0,1.11,0.47,1.51,1.57,1.51
			c4.25-0.03,8.51,0.03,12.77,0.01c1.46-0.01,1.5-0.07,1.52-1.68C264.05,185.1,264.03,182.21,264.03,179.33z"/>
		<path class="st1" d="M256.2,270.66c49.61,0,99.23,0,148.84,0c3.42,0,3-0.31,3,3c0,1.21,0.51,2.69-0.28,3.55
			c-0.81,0.89-2.32,0.34-3.52,0.34c-98.94,0.02-197.88,0.02-296.81,0.01c-3.58,0-3.05,0.43-3.1-3.09c-0.01-0.79,0.05-1.59-0.01-2.38
			c-0.1-1.18,0.46-1.53,1.53-1.44c0.57,0.05,1.15,0.01,1.73,0.01C157.12,270.66,206.66,270.66,256.2,270.66z"/>
		<path class="st1" d="M256.05,398.09c-42.92,0-85.84,0-128.76,0c-3.08,0-2.94,0.42-2.92-2.89c0.02-4.07-0.4-3.44,3.44-3.44
			c85.69-0.01,171.38-0.01,257.08,0c3.35,0,3-0.45,2.99,2.98c-0.01,3.88,0.5,3.34-3.29,3.34
			C341.74,398.09,298.9,398.09,256.05,398.09z"/>
		<path class="st3" d="M289.42,143.64c-21.87,0-43.56,0-65.25,0c-0.32-0.62,0.18-0.95,0.47-1.31c8.64-10.53,17.3-21.05,25.92-31.59
			c0.71-0.86,1.47-1.22,2.59-1.19c2.81,0.07,5.63,0.08,8.44,0c1.15-0.03,1.87,0.41,2.54,1.27c8.17,10.45,16.36,20.88,24.54,31.31
			C288.96,142.5,289.37,142.82,289.42,143.64z"/>
		<path class="st3" d="M256.21,221.17c49.48,0,98.96,0,148.44,0c0.5,0,1.01-0.01,1.51,0c1.9,0.03,1.9,0.03,1.93,1.92
			c0.03,2.08,0.03,2.1-2.16,2.1c-11.97,0-23.95,0-35.92,0c-87.28,0-174.55,0-261.83,0c-0.58,0-1.15,0-1.73,0
			c-2.16-0.02-2.16-0.02-2.14-2.12c0.02-1.89,0.02-1.89,2.37-1.89C156.53,221.17,206.37,221.17,256.21,221.17z"/>
		<path class="st1" d="M256.21,268.81c-48.4,0-96.79,0-145.19,0c-0.5,0-1.01,0.01-1.51,0c-1.55-0.04-1.86-0.45-1.63-1.95
			c0.1-0.63,0.42-0.88,1-0.89c0.5-0.02,1.01-0.02,1.51-0.02c97.23,0,194.45,0,291.68,0c0.36,0,0.72-0.02,1.08,0.01
			c1.31,0.08,1.39,0.24,1.44,1.57c0.04,1.11-0.5,1.37-1.45,1.3c-0.57-0.04-1.15-0.01-1.73-0.01
			C353,268.81,304.61,268.81,256.21,268.81z"/>
		<path class="st1" d="M165.38,169.75c0,5.4,0.01,10.8,0,16.2c0,1.81-0.03,1.83-1.75,1.84c-6.48,0.03-12.96,0.04-19.44,0.04
			c-1.73,0-1.76-0.03-1.76-1.82c-0.01-11.02-0.01-22.03,0-33.05c0-1.74,0.03-1.77,1.81-1.77c6.48-0.01,12.96-0.01,19.44,0
			c1.62,0,1.65,0.04,1.65,1.71c0.02,5.62,0.01,11.23,0.01,16.85C165.35,169.75,165.36,169.75,165.38,169.75z M149.25,171.43
			c-0.01,0-0.01,0-0.02,0c0,2.09,0.04,4.18-0.01,6.27c-0.02,1.03,0.38,1.41,1.39,1.39c2.24-0.04,4.47-0.05,6.71,0
			c1.13,0.03,1.5-0.39,1.48-1.51c-0.06-3.89,0-7.79-0.05-11.68c-0.01-0.85-0.17-1.74-0.48-2.53c-0.67-1.72-1.93-2.87-3.82-3.13
			c-1.96-0.27-3.3,0.74-4.33,2.28c-0.62,0.93-0.89,1.94-0.88,3.07C149.26,167.54,149.25,169.48,149.25,171.43z"/>
		<path class="st1" d="M377.09,169.48c0,5.41,0.01,10.81,0,16.22c0,2.06-0.02,2.08-1.97,2.09c-6.34,0.02-12.69,0.04-19.03,0.04
			c-1.93,0-1.96-0.02-1.96-1.87c-0.01-10.96-0.01-21.91,0-32.87c0-1.87,0.03-1.89,1.94-1.9c6.34-0.01,12.69-0.01,19.03,0
			c1.94,0,1.95,0.02,1.95,2.08c0.01,5.41,0,10.81,0,16.22C377.07,169.48,377.08,169.48,377.09,169.48z M370.55,171.5
			c-0.02,0-0.04,0-0.06,0c0-2.23,0.11-4.48-0.03-6.7c-0.15-2.4-2.01-4.29-4.21-4.55c-2.07-0.24-3.87,0.99-4.78,3.29
			c-0.24,0.6-0.45,1.22-0.45,1.88c-0.01,4.11-0.01,8.22-0.05,12.33c-0.01,0.88,0.23,1.35,1.2,1.34c2.38-0.03,4.76-0.03,7.14,0
			c0.94,0.01,1.26-0.41,1.24-1.31C370.52,175.69,370.55,173.59,370.55,171.5z"/>
		<path class="st1" d="M227.93,199.32c-0.83,0.21-1.19-0.23-1.59-0.48c-5.07-3.18-10.11-6.41-15.21-9.54
			c-1.21-0.74-1.59-1.59-1.58-2.97c0.07-10.6,0.05-21.2,0.06-31.8c0-0.22,0.02-0.43,0-0.65c-0.11-1.08,0.28-1.59,1.45-1.52
			c1.44,0.08,2.88,0.02,4.33,0.02c3.61,0,7.21-0.01,10.82,0.01c1.68,0.01,1.7,0.03,1.72,1.66c0.03,2.31,0.01,4.62,0.01,6.92
			c0,12.04,0,24.09,0,36.13C227.93,197.85,227.93,198.62,227.93,199.32z M222.87,176.21c0.01,0,0.01,0,0.02,0
			c0-1.8-0.01-3.6,0.01-5.4c0.01-0.88-0.09-1.72-0.43-2.53c-0.77-1.87-2.05-3.17-4.16-3.27c-2.15-0.11-3.44,1.21-4.33,3
			c-0.29,0.58-0.53,1.18-0.53,1.85c-0.01,3.02,0,6.05-0.03,9.07c-0.01,0.75,0.26,1.23,0.96,1.49c2.29,0.86,4.56,1.77,6.87,2.57
			c1.18,0.41,1.59,0.09,1.62-1.17C222.9,179.95,222.87,178.08,222.87,176.21z"/>
		<path class="st1" d="M286.71,199.46c-0.31-0.79-0.19-1.44-0.19-2.07c-0.01-14.2-0.01-28.4,0-42.6c0-2.64-0.24-2.41,2.47-2.41
			c4.61-0.01,9.23-0.01,13.84,0c1.82,0,1.85,0.03,1.85,1.72c0.02,10.88,0.03,21.77,0.05,32.65c0,0.9-0.08,1.61-0.99,2.18
			c-5.45,3.38-10.86,6.83-16.29,10.24C287.28,199.29,287.06,199.33,286.71,199.46z M289.94,175.66c-0.01,0-0.01,0-0.02,0
			c0,2.01-0.03,4.03,0.01,6.04c0.03,1.47,0.27,1.63,1.7,1.16c2.11-0.71,4.19-1.51,6.31-2.21c1.06-0.35,1.45-1.02,1.43-2.1
			c-0.03-2.59,0.01-5.18,0.01-7.77c0-1.17-0.29-2.29-0.86-3.3c-1.82-3.21-5.71-3.34-7.75-0.27c-0.57,0.86-0.85,1.81-0.84,2.85
			C289.95,171.92,289.94,173.79,289.94,175.66z"/>
		<path class="st1" d="M331.43,169.51c0-5.48-0.01-10.96,0-16.44c0-1.86,0.03-1.88,1.92-1.89c5.62-0.01,11.25-0.01,16.87,0
			c1.93,0,1.96,0.03,1.97,1.88c0.02,10.96,0.04,21.92,0.04,32.88c0,1.8-0.03,1.84-1.78,1.84c-5.7,0.03-11.39,0.04-17.09,0.05
			c-1.91,0-1.93-0.02-1.93-1.88C331.43,180.47,331.43,174.99,331.43,169.51z M337.14,171.41c-0.01,0-0.02,0-0.03,0
			c0,2.08,0.03,4.17-0.01,6.25c-0.02,0.97,0.25,1.46,1.32,1.43c2.3-0.05,4.6-0.05,6.9,0c1.02,0.02,1.4-0.34,1.38-1.38
			c-0.05-2.87-0.01-5.75-0.02-8.62c0-1.36,0.08-2.74-0.07-4.09c-0.31-2.85-2.45-4.86-4.92-4.78c-2.42,0.08-4.38,2.3-4.55,5.15
			c-0.02,0.29-0.01,0.57-0.01,0.86C337.14,167.96,337.14,169.68,337.14,171.41z"/>
		<path class="st1" d="M167.41,169.3c0-5.41-0.01-10.81,0-16.22c0-1.86,0.03-1.88,1.93-1.89c5.62-0.01,11.25-0.01,16.87,0
			c1.93,0,1.96,0.03,1.97,1.88c0.02,10.96,0.04,21.92,0.04,32.88c0,1.8-0.03,1.84-1.78,1.84c-5.7,0.03-11.39,0.04-17.09,0.05
			c-1.9,0-1.93-0.02-1.93-1.88C167.4,180.4,167.41,174.85,167.41,169.3z M182.65,171.55L182.65,171.55
			c-0.01-2.01,0.06-4.03-0.03-6.04c-0.09-1.95-0.79-3.69-2.57-4.71c-3.09-1.77-6.78,0.55-6.89,4.44c-0.12,4.17-0.02,8.34-0.06,12.51
			c-0.01,0.87,0.22,1.35,1.19,1.34c2.37-0.03,4.74-0.03,7.12,0c0.93,0.01,1.26-0.37,1.25-1.29
			C182.62,175.72,182.65,173.63,182.65,171.55z"/>
		<path class="st1" d="M354.12,133.78c0-4.46-0.01-8.93,0-13.39c0.01-1.95,0.02-1.99,1.86-1.99c6.48-0.02,12.96-0.02,19.45,0
			c1.57,0,1.62,0.05,1.62,1.54c0.03,9.29,0.02,18.58,0.06,27.87c0,1.07-0.28,1.54-1.46,1.54c-6.7-0.04-13.4-0.03-20.1,0.02
			c-1.18,0.01-1.45-0.47-1.45-1.54C354.14,143.14,354.12,138.46,354.12,133.78z M370.5,136.18c0-2.02,0.06-4.04-0.01-6.05
			c-0.1-2.97-2.14-5.22-4.68-5.29c-2.33-0.06-4.63,2.18-4.74,5.01c-0.16,4.25-0.06,8.5-0.09,12.75c-0.01,0.83,0.35,1.15,1.17,1.14
			c2.38-0.02,4.76-0.03,7.14,0.01c0.96,0.02,1.24-0.41,1.23-1.3C370.48,140.36,370.5,138.27,370.5,136.18z"/>
		<path class="st1" d="M142.42,134.03c0-4.61-0.01-9.21,0.01-13.82c0.01-1.77,0.03-1.81,1.81-1.81c6.41-0.02,12.82-0.02,19.22,0
			c1.85,0,1.87,0.04,1.87,1.97c0.02,9,0.03,18,0.04,27c0,1.93-0.02,1.95-1.84,1.96c-6.41,0.02-12.82,0.02-19.22,0.02
			c-1.86,0-1.88-0.02-1.88-1.92C142.41,142.96,142.42,138.5,142.42,134.03z M158.77,136.5L158.77,136.5c0-1.8-0.01-3.59,0-5.39
			c0-0.79-0.07-1.57-0.28-2.34c-0.6-2.21-2.33-3.81-4.32-3.96c-1.88-0.14-3.89,1.37-4.64,3.54c-0.16,0.47-0.26,0.98-0.27,1.47
			c-0.03,4.17-0.02,8.34-0.05,12.5c-0.01,0.97,0.26,1.45,1.34,1.42c2.3-0.06,4.6-0.05,6.9,0c1.07,0.02,1.35-0.45,1.33-1.42
			C158.74,140.38,158.77,138.44,158.77,136.5z"/>
		<path class="st1" d="M188.22,134.04c0,4.54,0.01,9.07-0.01,13.61c-0.01,1.63-0.04,1.66-1.7,1.67c-5.84,0.02-11.67,0.03-17.51,0.02
			c-1.55,0-1.6-0.04-1.6-1.55c-0.02-9.29,0.01-18.58-0.03-27.87c0-1.1,0.3-1.54,1.46-1.54c5.91,0.04,11.81,0,17.72,0.03
			c1.53,0.01,1.59,0.08,1.6,1.59c0.02,4.68,0.01,9.36,0.01,14.04C188.19,134.04,188.21,134.04,188.22,134.04z M173.13,136.03
			L173.13,136.03c-0.01,2.15,0.02,4.31-0.02,6.46c-0.02,0.93,0.36,1.27,1.27,1.25c2.23-0.04,4.45,0.01,6.68-0.02
			c1.54-0.02,1.58-0.05,1.58-1.55c0.02-3.88,0.01-7.76-0.01-11.64c0-0.57-0.06-1.15-0.21-1.7c-0.61-2.33-2.47-3.97-4.5-4.02
			c-1.93-0.05-3.96,1.64-4.61,3.91c-0.15,0.54-0.18,1.13-0.19,1.7C173.12,132.29,173.13,134.16,173.13,136.03z"/>
		<path class="st1" d="M352.25,134.05c0,4.47,0.01,8.93,0,13.4c0,1.84-0.02,1.87-1.71,1.87c-5.84,0.02-11.67,0.03-17.51,0.02
			c-1.54,0-1.59-0.04-1.59-1.56c-0.02-9.29,0.01-18.58-0.03-27.87c0-1.11,0.32-1.53,1.47-1.53c5.91,0.04,11.81,0,17.72,0.03
			c1.53,0.01,1.58,0.07,1.59,1.6c0.02,4.68,0.01,9.36,0.01,14.04C352.22,134.05,352.24,134.05,352.25,134.05z M337.14,136.19
			c-0.01,0-0.02,0-0.04,0c0,2.01,0.04,4.03-0.02,6.04c-0.03,1.06,0.25,1.57,1.44,1.53c2.23-0.08,4.46-0.07,6.68,0
			c1.13,0.03,1.5-0.38,1.49-1.49c-0.05-3.88-0.02-7.76-0.02-11.64c0-1.1-0.23-2.14-0.74-3.11c-0.84-1.58-2.17-2.54-3.93-2.65
			c-1.82-0.11-3.12,0.91-4.02,2.44c-0.55,0.94-0.87,1.95-0.86,3.07C337.16,132.3,337.14,134.24,337.14,136.19z"/>
		<path class="st1" d="M266.63,77.08c0,0.36-0.02,0.72,0,1.08c0.07,0.85-0.33,1.13-1.14,1.12c-1.58-0.02-3.17,0.06-4.76,0.03
			c-0.9-0.02-1.32,0.27-1.31,1.22c0.03,2.52,0.03,5.04,0,7.56c-0.01,0.8,0.35,1.14,1.06,1.37c1.52,0.5,2.86,1.36,4.02,2.47
			c3.18,3.06,3.78,7.3,1.39,11c-2.18,3.38-5.44,4.8-9.41,4.61c-3.95-0.19-6.84-2.14-8.59-5.62c-1.88-3.75-0.54-8.4,3.01-10.9
			c0.58-0.41,1.21-0.89,1.88-1.03c2.2-0.44,2.77-1.72,2.55-3.83c-0.19-1.85-0.06-3.74,0-5.61c0.03-0.96-0.36-1.26-1.27-1.24
			c-1.66,0.03-3.32,0.03-4.97-0.05c-1.92-0.09-0.96-1.62-1.01-2.47c-0.05-0.78-0.81-2.21,1.01-2.25c1.66-0.04,3.31-0.07,4.97-0.04
			c0.91,0.02,1.31-0.28,1.28-1.24c-0.04-1.58,0.02-3.17,0-4.75c-0.01-0.72,0.27-1.08,1.01-1.04c0.14,0.01,0.29-0.01,0.43-0.01
			c3.16,0.01,2.48-0.15,2.66,2.46c0.1,1.48-0.55,3.37,0.51,4.32c0.96,0.85,2.76,0.18,4.19,0.26c0.29,0.02,0.58,0,0.86,0
			c1.55,0.04,1.55,0.04,1.6,1.51c0.01,0.36,0,0.72,0,1.08C266.61,77.08,266.62,77.08,266.63,77.08z"/>
		<path class="st3" d="M375.54,108.4c-1.45-1.09-2.48-2.58-3.67-3.92c-2.39-2.69-4.72-5.44-7.09-8.15
			c-0.42-0.48-0.79-1.03-1.54-1.36c-2.93,5.9-5.83,11.75-8.74,17.6c-0.09-0.02-0.18-0.03-0.26-0.05c0-15.11,0-30.22,0-45.37
			c0.55-0.14,0.59,0.42,0.76,0.76c6.77,13.03,13.53,26.07,20.28,39.11c0.19,0.38,0.3,0.8,0.45,1.2
			C375.67,108.28,375.61,108.34,375.54,108.4z"/>
		<path class="st3" d="M351.74,112.83c-3.22-5.89-6.43-11.77-9.82-17.98c-3.62,3.98-6.6,8.12-10.1,11.79
			c0.18-1.83,18.84-37.66,20.29-39.36c0,15.14,0,30.28,0,45.41C351.98,112.73,351.86,112.78,351.74,112.83z"/>
		<path class="st3" d="M165.23,66.83c0,15.37,0,30.37,0,45.64c-0.74-0.66-0.93-1.36-1.24-1.97c-2.18-4.39-4.34-8.78-6.51-13.17
			c-0.19-0.39-0.37-0.78-0.58-1.16c-0.67-1.2-0.86-1.25-1.84-0.19c-1.23,1.32-2.38,2.71-3.55,4.07c-1.97,2.29-3.93,4.6-5.92,6.88
			c-0.35,0.4-0.6,1.01-1.32,0.9C144.56,106.21,162.49,71.08,165.23,66.83z"/>
		<path class="st3" d="M188.71,107.84c-1.99-1.79-3.45-4.03-5.18-6.04c-1.87-2.17-3.66-4.42-5.73-6.94
			c-2.03,3.03-3.48,6.04-5.09,8.97c-1.62,2.95-3.24,5.91-4.92,8.97c-0.49-1.87-0.71-38.74-0.3-45.14c0.66-0.22,0.65,0.43,0.8,0.71
			c6.69,12.69,13.35,25.38,20.02,38.08c0.24,0.45,0.5,0.88,0.37,1.42C188.68,107.87,188.71,107.84,188.71,107.84z"/>
		<path class="st3" d="M224.96,145.61c21.59,0,42.73,0,64.11,0c-0.94,1.81-2.32,3.06-3.52,4.42c-0.46,0.52-1.23,0.28-1.86,0.28
			c-6.34,0.01-12.68,0.01-19.02,0.01c-11.1,0-22.19-0.03-33.29,0.04c-1.6,0.01-2.75-0.41-3.71-1.65
			C226.92,147.74,226.06,146.86,224.96,145.61z"/>
		<path class="st3" d="M269.19,113.93c0.63,0.03,1.02,0.5,1.46,0.85c11.69,9.12,23.37,18.24,35.05,27.37
			c0.45,0.35,0.97,0.63,1.24,1.18c-0.2,0.62-0.72,0.34-1.08,0.35c-3.96,0.02-7.92-0.01-11.88,0.03c-1.09,0.01-1.84-0.26-2.56-1.18
			c-7.21-9.25-14.48-18.45-21.73-27.68c-0.21-0.27-0.33-0.63-0.49-0.94L269.19,113.93z"/>
		<path class="st3" d="M244.52,114.77c-1.4,2.36-3.35,4.3-5.06,6.41c-5.76,7.09-11.63,14.1-17.39,21.19
			c-0.82,1.01-1.65,1.38-2.92,1.36c-4.22-0.07-8.45-0.02-12.82-0.36c1.32-1.04,2.63-2.09,3.97-3.1
			c10.8-8.14,21.61-16.28,32.42-24.41c0.56-0.42,1.01-1.06,1.82-1.06L244.52,114.77z"/>
		<path class="st1" d="M166.27,63.22c-2.81-0.01-5.54-2.1-6.07-4.62c-0.54-2.6,0.86-5.16,3.72-6.31c1.14-0.46,1.54-1.01,1.45-2.19
			c-0.1-1.29-0.09-2.59,0-3.88c0.08-1.18-0.46-1.52-1.52-1.43c-0.57,0.05-1.15-0.02-1.73,0.01c-0.87,0.06-1.3-0.2-1.31-1.19
			c-0.01-0.99,0.42-1.18,1.3-1.21c1.05-0.04,2.42,0.55,3.05-0.35c0.49-0.7,0.23-1.94,0.23-2.95c0-0.82,0.11-1.41,1.16-1.35
			c0.63,0.04,0.92,0.28,0.92,0.9c0,0.86,0.05,1.73,0.02,2.59c-0.03,0.84,0.37,1.16,1.16,1.16c0.79,0,1.58,0.04,2.37,0.02
			c0.8-0.03,1.15,0.24,1.17,1.11c0.01,0.92-0.3,1.27-1.23,1.28c-1.06,0.01-2.38-0.48-3.12,0.27c-0.81,0.82-0.2,2.19-0.31,3.31
			c-0.05,0.57,0.05,1.16-0.02,1.72c-0.13,1.13,0.23,1.76,1.37,2.25c2.83,1.22,4.14,3.63,3.6,6.15
			C171.9,61.24,169.26,63.23,166.27,63.22z"/>
		<path class="st1" d="M359.39,57.27c-0.06,3.55-3.06,6.14-6.6,5.94c-3.55-0.2-6.15-3.11-5.73-6.46c0.28-2.22,1.6-3.69,3.63-4.43
			c1.01-0.37,1.29-0.92,1.24-1.9c-0.06-1.37,0-2.74-0.02-4.1c-0.03-1.48-0.05-1.48-1.61-1.52c-0.58-0.01-1.16-0.05-1.73,0
			c-1.03,0.09-1.15-0.48-1.16-1.32c-0.01-0.9,0.43-1.04,1.19-1.07c1.06-0.05,2.4,0.52,3.1-0.31c0.65-0.77,0.23-2.08,0.28-3.15
			c0.03-0.76,0.22-1.23,1.11-1.19c0.62,0.03,0.95,0.23,0.95,0.87c0.01,0.94,0.03,1.87,0.03,2.81c0,0.63,0.31,0.93,0.91,0.95
			c0.86,0.03,1.73,0.06,2.59,0.04c0.78-0.02,1.19,0.19,1.19,1.08c0,0.89-0.23,1.3-1.21,1.31c-1.06,0-2.41-0.5-3.12,0.26
			c-0.83,0.89-0.22,2.33-0.33,3.53c-0.03,0.29,0.04,0.58-0.01,0.86c-0.28,1.58,0.3,2.4,1.87,3.02
			C358.13,53.34,359.38,55.09,359.39,57.27z"/>
		<path class="st3" d="M351.47,116.42c-8.05,0-15.71,0-23.82,0c2.59-1.99,4.85-3.73,7.12-5.46c2.76-2.09,5.53-4.16,8.3-6.23
			c1.4-1.05,1.43-1.05,2.21,0.37C347.29,108.74,349.28,112.41,351.47,116.42z"/>
		<path class="st3" d="M168.11,116.38c2.36-4.36,4.57-8.43,6.9-12.72c5.64,4.24,11.07,8.32,16.49,12.4
			c-0.05,0.11-0.09,0.21-0.14,0.32C183.78,116.38,176.2,116.38,168.11,116.38z"/>
		<path class="st3" d="M164.3,116.41c-7.46,0-14.91,0-22.38,0c-0.19-0.58,0.36-0.67,0.68-0.88c4.92-3.24,9.84-6.47,14.78-9.69
			c1.54-1,1.63-0.97,2.41,0.57c1.46,2.88,2.88,5.79,4.32,8.68C164.27,115.41,164.47,115.72,164.3,116.41z"/>
		<path class="st3" d="M377.82,116.41c-7.56,0-15.07,0-22.58,0c-0.26-0.65,0.18-1.11,0.42-1.6c1.36-2.86,2.72-5.71,4.12-8.54
			c0.66-1.34,0.76-1.39,1.9-0.65c5.32,3.43,10.61,6.89,15.9,10.35C377.68,116.02,377.71,116.19,377.82,116.41z"/>
		<path class="st3" d="M205.09,145.53c5.67,0,10.84,0,16.01,0c0.53,0,0.99,0.14,1.36,0.53c1.23,1.28,2.47,2.55,3.76,3.87
			c-0.68,0.55-1.27,0.35-1.81,0.36c-4.54,0.02-9.08-0.02-13.62,0.03c-1.17,0.01-2.07-0.24-2.79-1.23
			C207.21,147.99,206.29,146.98,205.09,145.53z"/>
		<path class="st3" d="M308.11,145.84c-0.04,0.19-0.03,0.27-0.06,0.33c-2.06,4.14-2.06,4.14-6.64,4.14c-3.6,0-7.2,0.01-10.8-0.01
			c-0.69,0-1.41,0.15-2.23-0.24c0.95-1.61,2.27-2.82,3.4-4.18c0.31-0.38,0.76-0.36,1.19-0.36c4.9,0.01,9.79,0.02,14.69,0.05
			C307.76,145.58,307.88,145.7,308.11,145.84z"/>
		<path class="st3" d="M374.66,111.46c-1.82-0.72-3.32-1.97-4.96-3c-2.37-1.49-4.68-3.07-7.05-4.56c-0.91-0.57-1.14-1.19-0.64-2.14
			c0.57-1.07,1.1-2.17,1.7-3.36c1.62,1.16,2.65,2.72,3.84,4.12c2.45,2.89,5.14,5.59,7.34,8.7
			C374.81,111.31,374.73,111.39,374.66,111.46z"/>
		<path class="st3" d="M144.98,111.31c0-0.2-0.08-0.48,0.03-0.6c3.48-4.11,6.99-8.21,10.57-12.4c1.08,1.27,1.49,2.67,2.17,3.91
			c0.46,0.84-0.2,1.17-0.73,1.52c-2.89,1.9-5.76,3.82-8.69,5.67C147.25,110.09,146.32,111.06,144.98,111.31L144.98,111.31z"/>
		<path class="st3" d="M188.28,110.86c-0.55-0.02-0.91-0.39-1.31-0.69c-3.22-2.41-6.45-4.82-9.66-7.24c-1.32-1-1.34-1.03-0.57-2.41
			c0.38-0.68,0.57-1.48,1.41-2.11c1.41,1.69,2.85,3.36,4.21,5.08c1.95,2.47,4.18,4.73,5.91,7.39L188.28,110.86z"/>
		<path class="st3" d="M332.23,109.83c2.25-3.42,5.08-6.38,7.59-9.59c0.48-0.61,1-1.19,1.48-1.75c0.23,0.09,0.42,0.11,0.47,0.2
			c2.12,3.6,2.23,2.9-1.01,5.31c-2.75,2.05-5.35,4.3-8.3,6.1C332.39,110.01,332.31,109.92,332.23,109.83z"/>
		<path class="st1" d="M332.47,110.09c-0.18,0.42-0.51,0.67-0.94,0.78l0.02,0.02c-0.06-0.54,0.26-0.83,0.69-1.06
			C332.31,109.92,332.39,110.01,332.47,110.09z"/>
		<path class="st1" d="M331.05,107.1c0.22-0.11,0.39-0.05,0.36,0.12c-0.03,0.18-0.19,0.35-0.33,0.48c-0.11,0.11-0.3,0.01-0.28-0.15
			C330.83,107.36,330.99,107.2,331.05,107.1z"/>
		<path class="st1" d="M375.74,108.22c0.24,0.15,0.46,0.45,0.22,0.6c-0.3,0.19-0.32-0.23-0.42-0.43
			C375.61,108.34,375.67,108.28,375.74,108.22z"/>
		<path class="st1" d="M189.13,108.3c0.08,0.1,0.16,0.21,0.24,0.31c-0.31,0.04-0.1-0.25-0.22-0.34
			C189.15,108.27,189.13,108.3,189.13,108.3z"/>
		<path class="st1" d="M244.54,114.79c0.03-0.07,0.06-0.19,0.07-0.19c0.15,0.02,0.12,0.08-0.1,0.17
			C244.52,114.77,244.54,114.79,244.54,114.79z"/>
		<path class="st1" d="M269.21,113.91c-0.05-0.03-0.11-0.06-0.16-0.09c0.05,0.04,0.09,0.08,0.14,0.11
			C269.19,113.93,269.21,113.91,269.21,113.91z"/>
		<polygon class="st1" points="143.67,112.17 143.63,112.24 143.69,112.19 		"/>
		<path class="st1" d="M143.69,112.19c0.07-0.05,0.14-0.11,0.2-0.16c-0.02,0.03-0.04,0.07-0.06,0.09c-0.05,0.03-0.11,0.04-0.16,0.05
			L143.69,112.19z"/>
		<path class="st1" d="M374.89,111.24c0.09,0.1,0.27,0.27,0.25,0.3c-0.19,0.29-0.34,0.09-0.48-0.07
			C374.73,111.39,374.81,111.31,374.89,111.24z"/>
		<path class="st1" d="M144.99,111.32c-0.08,0.09-0.15,0.17-0.23,0.26c-0.03-0.08-0.06-0.16-0.09-0.23
			C144.77,111.33,144.88,111.32,144.99,111.32C144.98,111.31,144.99,111.32,144.99,111.32z"/>
		<path class="st1" d="M331.52,110.87c-0.04,0.05-0.1,0.15-0.11,0.15c-0.11-0.05-0.07-0.1,0.13-0.12L331.52,110.87z"/>
		<path class="st1" d="M188.25,110.89c0.04,0.03,0.08,0.05,0.12,0.08c-0.03-0.03-0.07-0.07-0.1-0.1
			C188.28,110.86,188.25,110.89,188.25,110.89z"/>
		<path class="st1" d="M143.91,108.32c0.04,0.05,0.11,0.11,0.1,0.16c0,0.05-0.09,0.09-0.13,0.13c-0.04-0.05-0.11-0.11-0.1-0.16
			C143.78,108.41,143.86,108.37,143.91,108.32z"/>
		<path class="st1" d="M189.15,108.27c-0.27-0.02-0.4-0.19-0.44-0.44l-0.03,0.03c0.3-0.01,0.38,0.2,0.44,0.43
			C189.13,108.3,189.15,108.27,189.15,108.27z"/>
		<path class="st2" d="M289.66,257.4c-1.94,0-3.88-0.03-5.82,0.01c-1.06,0.02-1.58-0.31-1.55-1.47c0.07-3.23-0.03-6.47,0.12-9.7
			c0.18-3.84,3.08-6.72,6.71-6.88c4.13-0.18,7.19,2.16,7.8,6.16c0.54,3.57,0.13,7.17,0.22,10.76c0.02,0.84-0.45,1.12-1.23,1.11
			C293.83,257.39,291.75,257.4,289.66,257.4L289.66,257.4z M289.56,255.52c0-0.02,0-0.03,0-0.05c1.58,0,3.16-0.01,4.75,0
			c0.61,0.01,0.93-0.2,0.92-0.86c-0.02-2.87,0.1-5.76-0.07-8.62c-0.17-2.8-2.79-4.92-5.64-4.87c-2.77,0.05-5.18,2.39-5.26,5.24
			c-0.07,2.66,0.02,5.32-0.04,7.98c-0.02,0.97,0.33,1.24,1.25,1.2C286.83,255.48,288.2,255.52,289.56,255.52z"/>
		<path class="st2" d="M222.61,257.4c-1.94,0-3.89-0.02-5.83,0.01c-0.94,0.02-1.51-0.21-1.49-1.31c0.09-3.6,0.05-7.2,0.23-10.8
			c0.13-2.57,2.73-5.2,5.41-5.81c3.09-0.7,6.4,0.62,7.9,3.16c0.9,1.53,1.31,3.22,1.33,4.95c0.03,2.88-0.09,5.76-0.11,8.64
			c0,0.85-0.38,1.15-1.17,1.15C226.79,257.39,224.7,257.4,222.61,257.4z M222.61,255.52c0-0.02,0-0.03,0-0.05
			c1.51,0,3.02-0.02,4.53,0.01c0.68,0.01,1.07-0.15,1.06-0.94c-0.04-2.88,0.09-5.76-0.09-8.63c-0.18-2.79-2.83-4.88-5.7-4.8
			c-2.7,0.08-5.09,2.35-5.18,5.1c-0.09,2.73,0,5.47-0.04,8.2c-0.01,0.82,0.25,1.16,1.1,1.13
			C219.73,255.48,221.17,255.52,222.61,255.52z"/>
		<path class="st2" d="M356.63,257.4c-1.95,0-3.89-0.05-5.84,0.02c-1.15,0.04-1.48-0.43-1.46-1.53c0.06-3.24-0.04-6.49,0.07-9.73
			c0.14-3.87,3.34-6.79,7.26-6.79c4.01,0,7.18,2.82,7.32,6.71c0.12,3.31,0.02,6.63,0.07,9.94c0.01,1.02-0.34,1.42-1.38,1.39
			C360.67,257.36,358.65,257.4,356.63,257.4z M356.59,255.52c0-0.02,0-0.03,0-0.05c1.58,0,3.17-0.01,4.75,0
			c0.61,0,0.93-0.21,0.92-0.87c-0.03-2.8,0.12-5.62-0.09-8.41c-0.24-3.14-2.68-5.17-5.64-5.06c-2.95,0.11-5.18,2.35-5.29,5.46
			c-0.09,2.59,0.02,5.18-0.04,7.77c-0.02,1,0.41,1.21,1.29,1.18C353.86,255.48,355.22,255.52,356.59,255.52z"/>
		<path class="st2" d="M334.33,257.4c-1.94,0-3.88,0.02-5.82-0.01c-1.41-0.02-1.47-0.11-1.46-1.47c0.02-3.23,0.04-6.47,0.1-9.7
			c0.06-3.35,2.77-6.38,6.06-6.81c3.79-0.5,7.29,1.65,8.21,5.1c0.26,0.97,0.41,1.97,0.4,2.98c-0.02,2.8-0.04,5.61,0.02,8.41
			c0.02,1.1-0.32,1.56-1.46,1.52C338.35,257.36,336.34,257.4,334.33,257.4z M334.35,255.52c0-0.02,0-0.03,0-0.05
			c1.51,0,3.02-0.01,4.53,0c0.55,0,1.01-0.04,1-0.77c-0.03-3.02,0.09-6.05-0.13-9.05c-0.19-2.62-2.67-4.52-5.44-4.54
			c-2.6-0.01-5.17,2.1-5.33,4.69c-0.18,2.94-0.05,5.89-0.07,8.84c-0.01,0.66,0.3,0.88,0.91,0.88
			C331.33,255.51,332.84,255.52,334.35,255.52z"/>
		<path class="st2" d="M267.47,257.4c-2.02,0-4.04-0.04-6.06,0.02c-1.06,0.03-1.37-0.4-1.36-1.41c0.05-3.24,0.16-6.49,0-9.73
			c-0.14-2.8,2.68-6.55,6.28-6.9c3.88-0.37,7.2,1.78,8.1,5.3c0.25,0.99,0.32,1.99,0.32,3c0,2.74-0.03,5.48,0.03,8.22
			c0.03,1.12-0.34,1.55-1.47,1.52C271.37,257.36,269.42,257.4,267.47,257.4z M267.37,255.52c0-0.02,0-0.03,0-0.05
			c1.51,0,3.02-0.01,4.53,0c0.56,0,1-0.11,0.99-0.8c-0.05-3.02,0.27-6.06-0.15-9.05c-0.39-2.78-2.95-4.66-5.72-4.5
			c-2.69,0.15-5.05,2.44-5.15,5.18c-0.1,2.73-0.01,5.47-0.03,8.2c-0.01,0.74,0.27,1.03,1,1.02
			C264.35,255.5,265.86,255.52,267.37,255.52z"/>
		<path class="st2" d="M177.85,257.4c-1.94,0-3.89-0.03-5.83,0.01c-0.99,0.02-1.42-0.3-1.41-1.36c0.06-3.31-0.05-6.63,0.07-9.94
			c0.15-3.87,3.36-6.76,7.29-6.76c3.97,0,7.14,2.86,7.28,6.75c0.12,3.31,0.01,6.62,0.05,9.94c0.02,1.05-0.4,1.39-1.41,1.36
			C181.88,257.37,179.87,257.4,177.85,257.4z M177.86,255.52c0-0.02,0-0.03,0-0.05c1.58,0,3.17-0.01,4.75,0
			c0.61,0,0.93-0.22,0.92-0.87c-0.03-2.88,0.12-5.76-0.09-8.63c-0.21-2.89-2.76-4.93-5.65-4.85c-2.84,0.07-5.16,2.3-5.26,5.24
			c-0.1,2.66,0.01,5.32-0.04,7.98c-0.02,0.99,0.39,1.22,1.28,1.19C175.13,255.48,176.49,255.52,177.86,255.52z"/>
		<path class="st2" d="M155.56,257.4c-1.94,0-3.89-0.04-5.83,0.01c-1.04,0.03-1.38-0.4-1.36-1.41c0.05-3.16,0.2-6.34-0.02-9.49
			c-0.2-2.84,2.51-6.66,6.03-7.1c4.04-0.51,7.44,1.67,8.37,5.46c0.17,0.69,0.28,1.42,0.28,2.13c0.03,2.88,0.03,5.75,0.01,8.63
			c-0.01,1.73-0.04,1.75-1.87,1.77C159.3,257.42,157.43,257.4,155.56,257.4z M155.6,255.52c0-0.02,0-0.03,0-0.05
			c1.51,0,3.02,0,4.53,0c0.54,0,1.03-0.02,1.02-0.75c-0.04-3.02,0.1-6.05-0.15-9.05c-0.23-2.74-2.84-4.66-5.64-4.55
			c-2.75,0.11-5.06,2.32-5.16,5.11c-0.09,2.73,0,5.46-0.04,8.19c-0.01,0.86,0.32,1.13,1.13,1.11
			C152.73,255.49,154.17,255.52,155.6,255.52z"/>
		<path class="st2" d="M379,257.4c-1.95,0-3.89-0.03-5.84,0.01c-0.97,0.02-1.45-0.25-1.43-1.33c0.06-3.39-0.04-6.78,0.08-10.16
			c0.13-3.58,3.36-6.5,7.04-6.55c4.09-0.07,7.32,2.7,7.55,6.76c0.19,3.38,0.04,6.77,0.07,10.16c0.01,0.86-0.42,1.13-1.19,1.12
			C383.18,257.39,381.09,257.4,379,257.4z M378.94,255.52c0-0.02,0-0.03,0-0.05c1.51,0,3.02,0,4.53,0c0.61,0,1.19-0.03,1.16-0.87
			c-0.1-2.94,0.29-5.9-0.21-8.83c-0.51-3.01-2.91-4.88-5.77-4.63c-2.85,0.24-5.03,2.51-5.11,5.45c-0.07,2.52,0.02,5.04-0.04,7.55
			c-0.02,1,0.24,1.45,1.32,1.38C376.2,255.46,377.57,255.52,378.94,255.52z"/>
		<path class="st2" d="M200.37,257.4c-1.87,0-3.75,0.02-5.62-0.01c-1.69-0.02-1.72-0.04-1.72-1.65c-0.01-3.17-0.02-6.34,0.04-9.52
			c0.06-3.17,2.42-6.04,5.43-6.72c3.37-0.76,6.78,0.72,8.29,3.64c0.61,1.16,0.95,2.4,0.95,3.73c-0.01,2.96,0.01,5.91-0.01,8.87
			c-0.01,1.61-0.04,1.63-1.73,1.65C204.12,257.42,202.25,257.4,200.37,257.4z M200.32,255.52c0-0.01,0-0.02,0-0.04
			c0.79,0,1.58,0,2.38,0c3.22-0.01,3.26-0.02,3.21-3.15c-0.04-2.3,0.28-4.61-0.24-6.89c-0.64-2.8-3.03-4.54-5.87-4.32
			c-2.56,0.19-4.84,2.45-4.96,5.15c-0.12,2.73,0,5.47-0.05,8.21c-0.01,0.93,0.46,1.06,1.21,1.05
			C197.44,255.5,198.88,255.52,200.32,255.52z"/>
		<path class="st2" d="M133.21,257.4c-1.95,0-3.89-0.03-5.84,0.01c-0.99,0.02-1.43-0.29-1.41-1.36c0.06-3.39-0.04-6.78,0.08-10.16
			c0.12-3.43,3.18-6.36,6.62-6.52c4.18-0.19,7.52,2.19,7.85,6.08c0.31,3.65,0.11,7.34,0.13,11.02c0.01,0.81-0.53,0.92-1.16,0.92
			C137.39,257.4,135.3,257.4,133.21,257.4L133.21,257.4z M133.22,255.52c0-0.01,0-0.02,0-0.03c0.43,0,0.87,0.04,1.3-0.01
			c1.41-0.14,3.2,0.64,4.13-0.38c0.82-0.89,0.25-2.62,0.24-3.97c-0.01-1.87,0.24-3.75-0.18-5.6c-0.65-2.85-2.99-4.6-5.82-4.41
			c-2.74,0.19-4.94,2.37-5.06,5.25c-0.11,2.66,0,5.33-0.04,7.99c-0.01,0.82,0.27,1.18,1.12,1.16
			C130.34,255.49,131.78,255.52,133.22,255.52z"/>
		<path class="st2" d="M311.83,257.4c-1.95,0-3.89-0.02-5.84,0.01c-0.89,0.01-1.31-0.28-1.3-1.24c0.05-3.46-0.06-6.92,0.08-10.37
			c0.14-3.48,3.35-6.34,6.93-6.43c3.95-0.1,7.24,2.43,7.54,6.23c0.28,3.58,0.11,7.2,0.15,10.8c0.01,0.93-0.59,1.01-1.3,1.01
			C316.01,257.4,313.92,257.4,311.83,257.4z M312.05,255.52c0-0.02,0-0.03,0-0.05c1.51,0,3.03-0.01,4.54,0.01
			c0.7,0.01,1.05-0.23,1.04-0.99c-0.03-2.74,0.1-5.48-0.05-8.21c-0.16-3-2.68-5.2-5.62-5.17c-2.79,0.03-5.26,2.28-5.41,5.16
			c-0.13,2.73-0.01,5.47-0.05,8.21c-0.01,0.92,0.48,1.06,1.22,1.05C309.17,255.5,310.61,255.52,312.05,255.52z"/>
		<path class="st2" d="M245,257.4c-2.02,0-4.04-0.02-6.05,0.01c-0.9,0.01-1.3-0.3-1.29-1.25c0.04-3.46-0.09-6.92,0.07-10.38
			s3.42-6.34,6.97-6.42c3.96-0.09,7.24,2.44,7.52,6.24c0.27,3.58,0.1,7.2,0.13,10.8c0.01,0.94-0.6,1-1.3,1
			C249.03,257.39,247.02,257.4,245,257.4z M244.96,255.52c0-0.02,0-0.03,0-0.05c1.44,0,2.88-0.03,4.31,0.01
			c0.85,0.02,1.33-0.16,1.31-1.17c-0.06-2.66,0.07-5.32-0.05-7.98c-0.12-2.95-2.61-5.2-5.56-5.22c-2.81-0.02-5.25,2.17-5.41,5.09
			c-0.14,2.73-0.02,5.46-0.06,8.19c-0.01,0.83,0.29,1.16,1.13,1.14C242.08,255.49,243.52,255.52,244.96,255.52z"/>
		<path class="st2" d="M264.03,179.33c0,2.88,0.02,5.77-0.01,8.65c-0.02,1.62-0.05,1.68-1.52,1.68c-4.26,0.02-8.51-0.04-12.77-0.01
			c-1.1,0.01-1.57-0.4-1.57-1.51c0.02-5.77-0.11-11.54,0.06-17.3c0.13-4.4,3.86-7.67,8.16-7.55c4.27,0.12,7.53,3.4,7.64,7.81
			c0.07,2.74,0.01,5.48,0.01,8.22C264.05,179.33,264.04,179.33,264.03,179.33z M250.15,178.49c-0.01,0-0.03,0-0.04,0
			c0,2.74,0.03,5.48-0.02,8.21c-0.02,0.92,0.27,1.26,1.22,1.24c3.24-0.06,6.49-0.07,9.73-0.04c0.92,0.01,1.27-0.29,1.26-1.24
			c-0.04-3.1-0.01-6.2-0.02-9.29c0-2.16,0.07-4.33-0.03-6.48c-0.16-3.36-3.01-5.92-6.32-5.79c-3.25,0.13-5.75,2.73-5.77,6.04
			C250.13,173.59,250.15,176.04,250.15,178.49z"/>
		<path class="st2" d="M149.25,171.43c0-1.95,0.02-3.89-0.01-5.84c-0.01-1.12,0.26-2.14,0.88-3.07c1.03-1.54,2.37-2.55,4.33-2.28
			c1.89,0.26,3.15,1.41,3.82,3.13c0.31,0.79,0.47,1.68,0.48,2.53c0.05,3.89-0.01,7.79,0.05,11.68c0.02,1.12-0.35,1.54-1.48,1.51
			c-2.23-0.06-4.47-0.05-6.71,0c-1.02,0.02-1.42-0.36-1.39-1.39c0.05-2.09,0.01-4.18,0.01-6.27
			C149.23,171.43,149.24,171.43,149.25,171.43z M151.02,170.83c0,1.8,0.02,3.59-0.01,5.39c-0.01,0.75,0.29,1.02,1.02,1
			c1.29-0.04,2.59-0.04,3.88-0.03c0.67,0.01,1.09-0.16,1.09-0.95c-0.02-3.52,0.06-7.05-0.05-10.57c-0.06-2.04-1.52-3.68-2.98-3.69
			c-1.56-0.02-2.89,1.7-2.94,3.89C150.99,167.53,151.02,169.18,151.02,170.83z"/>
		<path class="st2" d="M370.55,171.5c0,2.09-0.03,4.18,0.01,6.27c0.02,0.9-0.3,1.32-1.24,1.31c-2.38-0.03-4.76-0.03-7.14,0
			c-0.97,0.01-1.21-0.46-1.2-1.34c0.04-4.11,0.04-8.22,0.05-12.33c0-0.67,0.21-1.28,0.45-1.88c0.9-2.3,2.71-3.53,4.78-3.29
			c2.2,0.26,4.06,2.14,4.21,4.55c0.14,2.23,0.03,4.47,0.03,6.7C370.51,171.5,370.53,171.5,370.55,171.5z M362.8,170.82
			c0,1.72,0.04,3.45-0.01,5.17c-0.03,0.95,0.34,1.28,1.26,1.24c1.22-0.06,2.44-0.07,3.66-0.03c0.87,0.03,1.09-0.35,1.08-1.15
			c-0.04-3.45-0.03-6.9-0.03-10.35c0-0.89-0.31-1.7-0.79-2.42c-1.09-1.61-2.92-1.69-4.17-0.21c-0.73,0.86-0.98,1.9-0.98,3.01
			C362.8,167.66,362.8,169.24,362.8,170.82z"/>
		<path class="st2" d="M222.87,176.21c0,1.87,0.04,3.75-0.01,5.62c-0.03,1.26-0.44,1.58-1.62,1.17c-2.31-0.8-4.58-1.72-6.87-2.57
			c-0.7-0.26-0.97-0.75-0.96-1.49c0.03-3.02,0.03-6.05,0.03-9.07c0-0.67,0.25-1.28,0.53-1.85c0.89-1.79,2.18-3.11,4.33-3
			c2.1,0.11,3.38,1.4,4.16,3.27c0.34,0.81,0.44,1.66,0.43,2.53c-0.02,1.8-0.01,3.6-0.01,5.4
			C222.88,176.21,222.87,176.21,222.87,176.21z M221.14,180.9c0-2.64,0-4.93,0-7.23c0-1.15,0.06-2.31-0.05-3.45
			c-0.19-1.98-1.54-3.48-2.98-3.45s-2.78,1.58-2.84,3.54c-0.09,2.52-0.01,5.04-0.04,7.56c-0.01,0.69,0.27,1.07,0.89,1.29
			C217.67,179.69,219.22,180.23,221.14,180.9z"/>
		<path class="st2" d="M289.94,175.66c0-1.87,0.02-3.74-0.01-5.61c-0.01-1.04,0.26-1.98,0.84-2.85c2.03-3.07,5.93-2.94,7.75,0.27
			c0.58,1.02,0.86,2.13,0.86,3.3c0.01,2.59-0.04,5.18-0.01,7.77c0.01,1.08-0.38,1.75-1.43,2.1c-2.11,0.7-4.19,1.51-6.31,2.21
			c-1.43,0.48-1.67,0.31-1.7-1.16c-0.04-2.01-0.01-4.03-0.01-6.04C289.92,175.66,289.93,175.66,289.94,175.66z M291.7,180.96
			c1.83-0.67,3.42-1.26,5.02-1.85c0.66-0.24,0.74-0.77,0.74-1.39c-0.02-2.45-0.01-4.89-0.03-7.34c0-0.57-0.06-1.14-0.32-1.68
			c-0.49-1.05-1.25-1.82-2.42-1.9c-1.21-0.08-1.98,0.7-2.54,1.69c-0.25,0.44-0.44,0.91-0.44,1.43
			C291.7,173.5,291.7,177.08,291.7,180.96z"/>
		<path class="st2" d="M337.14,171.41c0-1.72,0-3.45,0-5.17c0-0.29-0.01-0.58,0.01-0.86c0.16-2.85,2.13-5.07,4.55-5.15
			c2.47-0.08,4.61,1.93,4.92,4.78c0.15,1.35,0.06,2.73,0.07,4.09c0.01,2.87-0.03,5.75,0.02,8.62c0.02,1.03-0.36,1.4-1.38,1.38
			c-2.3-0.05-4.6-0.05-6.9,0c-1.07,0.02-1.35-0.46-1.32-1.43c0.05-2.08,0.01-4.17,0.01-6.25
			C337.12,171.41,337.13,171.41,337.14,171.41z M338.91,170.87c0,1.65,0.04,3.31-0.02,4.96c-0.04,0.97,0.19,1.49,1.29,1.41
			c1.15-0.08,2.3-0.1,3.45-0.03c1.1,0.07,1.31-0.43,1.29-1.4c-0.05-3.09-0.03-6.18-0.01-9.27c0.01-0.88-0.18-1.73-0.48-2.52
			c-0.44-1.14-1.32-1.92-2.59-1.99c-1.14-0.06-1.82,0.75-2.36,1.63c-0.46,0.75-0.6,1.59-0.59,2.48
			C338.94,167.7,338.91,169.29,338.91,170.87z"/>
		<path class="st2" d="M182.65,171.55c0,2.08-0.03,4.17,0.01,6.25c0.02,0.91-0.32,1.3-1.25,1.29c-2.37-0.03-4.74-0.03-7.12,0
			c-0.97,0.01-1.2-0.46-1.19-1.34c0.03-4.17-0.06-8.34,0.06-12.51c0.11-3.89,3.8-6.21,6.89-4.44c1.78,1.02,2.48,2.76,2.57,4.71
			C182.71,167.52,182.64,169.54,182.65,171.55L182.65,171.55z M174.88,170.88c0,0.65-0.04,1.3,0.01,1.94
			c0.11,1.41-0.66,3.25,0.34,4.13c0.96,0.84,2.77,0.15,4.19,0.27c1.09,0.09,1.52-0.26,1.49-1.44c-0.08-3.17-0.03-6.34-0.03-9.5
			c0-0.95-0.21-1.87-0.65-2.7c-1.05-1.99-3.23-2.12-4.54-0.31c-0.56,0.78-0.83,1.66-0.82,2.63
			C174.9,167.57,174.88,169.23,174.88,170.88z"/>
		<path class="st2" d="M370.5,136.18c0,2.09-0.02,4.18,0.01,6.27c0.01,0.89-0.27,1.32-1.23,1.3c-2.38-0.04-4.76-0.03-7.14-0.01
			c-0.81,0.01-1.17-0.31-1.17-1.14c0.03-4.25-0.07-8.51,0.09-12.75c0.11-2.84,2.41-5.08,4.74-5.01c2.54,0.07,4.57,2.32,4.68,5.29
			C370.56,132.14,370.5,134.16,370.5,136.18z M368.78,135.58c0-1.51,0-3.01,0-4.52c0-0.14,0-0.29,0-0.43
			c-0.1-2.27-1.29-3.89-2.89-3.93c-1.69-0.04-3.03,1.63-3.07,3.99c-0.05,3.3,0.02,6.6-0.03,9.9c-0.02,1.08,0.43,1.37,1.42,1.31
			c1.07-0.07,2.16-0.09,3.23-0.03c1.02,0.06,1.42-0.29,1.37-1.35C368.73,138.88,368.78,137.23,368.78,135.58z"/>
		<path class="st2" d="M158.77,136.5c0,1.94-0.03,3.88,0.01,5.82c0.02,0.98-0.26,1.45-1.33,1.42c-2.3-0.05-4.6-0.06-6.9,0
			c-1.08,0.03-1.35-0.45-1.34-1.42c0.04-4.17,0.02-8.34,0.05-12.5c0-0.49,0.1-1.01,0.27-1.47c0.75-2.17,2.76-3.68,4.64-3.54
			c1.99,0.15,3.72,1.75,4.32,3.96c0.21,0.77,0.28,1.55,0.28,2.34C158.76,132.91,158.76,134.71,158.77,136.5L158.77,136.5z
			 M151.02,135.4c0,0.72-0.06,1.44,0.01,2.15c0.13,1.4-0.69,3.21,0.38,4.09c1,0.82,2.76,0.12,4.18,0.23
			c1.18,0.09,1.44-0.46,1.42-1.53c-0.06-3.01-0.01-6.03-0.03-9.04c-0.01-0.64-0.09-1.29-0.23-1.91c-0.37-1.63-1.39-2.63-2.67-2.68
			c-1.28-0.06-2.58,1.1-2.94,2.68c-0.11,0.48-0.11,1-0.11,1.5C151.01,132.39,151.02,133.89,151.02,135.4z"/>
		<path class="st2" d="M173.13,136.03c0-1.87-0.01-3.74,0.01-5.6c0.01-0.57,0.03-1.16,0.19-1.7c0.64-2.27,2.68-3.96,4.61-3.91
			c2.04,0.06,3.89,1.69,4.5,4.02c0.14,0.55,0.2,1.13,0.21,1.7c0.02,3.88,0.03,7.76,0.01,11.64c-0.01,1.51-0.05,1.54-1.58,1.55
			c-2.23,0.03-4.45-0.02-6.68,0.02c-0.92,0.02-1.29-0.32-1.27-1.25C173.17,140.35,173.14,138.19,173.13,136.03
			C173.12,136.03,173.13,136.03,173.13,136.03z M174.88,135.52c0,1.65,0.06,3.31-0.02,4.96c-0.06,1.18,0.42,1.51,1.51,1.43
			c1.07-0.08,2.16-0.09,3.23-0.03c1.08,0.07,1.34-0.41,1.32-1.41c-0.05-3.23-0.03-6.47-0.04-9.7c0-1.18-0.3-2.28-1.13-3.16
			c-1.2-1.28-2.82-1.21-3.9,0.16c-0.69,0.87-1,1.88-0.97,3.01C174.91,132.35,174.88,133.94,174.88,135.52z"/>
		<path class="st2" d="M337.14,136.19c0-1.94,0.02-3.88-0.01-5.82c-0.02-1.12,0.3-2.13,0.86-3.07c0.9-1.53,2.2-2.54,4.02-2.44
			c1.76,0.1,3.09,1.06,3.93,2.65c0.51,0.97,0.74,2.02,0.74,3.11c0,3.88-0.03,7.76,0.02,11.64c0.01,1.11-0.36,1.52-1.49,1.49
			c-2.23-0.07-4.46-0.07-6.68,0c-1.19,0.04-1.47-0.47-1.44-1.53c0.05-2.01,0.02-4.02,0.02-6.04
			C337.12,136.19,337.13,136.19,337.14,136.19z M338.91,135.51c0,1.73,0.04,3.45-0.02,5.18c-0.03,0.96,0.37,1.26,1.28,1.22
			c1.15-0.06,2.3-0.09,3.45-0.03c1.1,0.06,1.32-0.45,1.3-1.43c-0.04-3.24-0.02-6.47-0.01-9.71c0-1.12-0.34-2.14-1.01-3.01
			c-1.11-1.43-2.92-1.42-4.05,0.01c-0.64,0.81-0.96,1.75-0.95,2.8C338.93,132.2,338.91,133.85,338.91,135.51z"/>
	</g>
</g>
<g>
	<path class="st1" d="M242.87,216.97"/>
</g>
</svg>
